<?xml version="1.0" encoding="utf-8"?>
<!-- Generator: Adobe Illustrator 16.0.0, SVG Export Plug-In . SVG Version: 6.00 Build 0)  -->
<!DOCTYPE svg PUBLIC "-//W3C//DTD SVG 1.1//EN" "http://www.w3.org/Graphics/SVG/1.1/DTD/svg11.dtd">
<svg version="1.1" id="Layer_1" xmlns="http://www.w3.org/2000/svg" xmlns:xlink="http://www.w3.org/1999/xlink" x="0px" y="0px"
	 width="841.582px" height="294.803px" viewBox="0 0 841.582 294.803" enable-background="new 0 0 841.582 294.803"
	 xml:space="preserve">
<g>
	<path fill-rule="evenodd" clip-rule="evenodd" d="M290.3,143.142c-0.219,9-0.177,16.007-0.641,22.98
		c-0.258,3.868-1.275,7.699-2.097,11.516c-2.187,10.157-4.926,20.184-9.391,29.58c-3.9,8.21-7.981,16.391-13.553,23.655
		c-5.636,7.349-11.134,14.825-18.685,20.468c-2.348,1.755-4.142,4.244-6.462,6.045c-4.13,3.202-8.429,6.191-12.73,9.163
		c-2.791,1.928-5.633,3.81-8.593,5.461c-6.872,3.831-14.003,7.138-21.443,9.721c-3.877,1.347-7.811,2.534-11.735,3.74
		c-0.904,0.277-1.884,0.299-2.814,0.506c-2.989,0.663-5.943,1.544-8.962,1.995c-4.337,0.647-8.713,1.047-13.082,1.448
		c-4.254,0.391-8.516,0.804-12.782,0.913c-2.809,0.071-5.645-0.271-8.445-0.62c-4.467-0.558-8.911-1.296-13.371-1.92
		c-9.302-1.301-18.485-2.994-27.107-6.993c-4.299-1.993-8.8-3.552-13.112-5.521c-8.184-3.738-15.979-8.137-23.146-13.651
		c-9.425-7.254-17.823-15.484-25.405-24.666C26.601,224.678,19.29,210.8,13.374,196.187c-2.463-6.084-3.588-12.715-5.262-19.113
		c-0.675-2.58-1.377-5.176-1.739-7.811c-0.603-4.385-0.98-8.802-1.377-13.212c-0.247-2.737-0.517-5.489-0.49-8.232
		c0.049-5.152,0.136-10.315,0.532-15.448c0.287-3.725,1.036-7.42,1.689-11.108c0.612-3.451,1.369-6.876,2.068-10.311
		c0.055-0.272,0.122-0.553,0.247-0.797c2.67-5.205,3.74-10.976,5.734-16.425c2.834-7.748,6.969-14.683,11.534-21.443
		c0.624-0.924,1.206-1.892,1.672-2.902c1.57-3.408,3.696-6.436,6.137-9.261c0.157-0.181,0.336-0.352,0.452-0.558
		c2.535-4.523,6.344-7.993,9.744-11.8c0.906-1.014,1.738-2.1,2.7-3.054c1.013-1.005,2.125-1.913,3.224-2.826
		c1.812-1.505,3.623-3.013,5.48-4.461c3.458-2.696,6.934-5.373,10.438-8.008c1.043-0.785,2.178-1.462,3.322-2.095
		c4.366-2.415,8.866-4.609,13.108-7.223c6.797-4.188,14.148-6.943,21.756-9.146c2.295-0.664,4.564-1.422,6.873-2.031
		c3.656-0.963,7.312-1.954,11.013-2.71c2.954-0.604,5.976-0.88,8.969-1.291c0.708-0.097,1.421-0.194,2.134-0.213
		c1.628-0.044,3.259-0.024,4.888-0.059c2.552-0.055,5.104-0.216,7.654-0.18c2.874,0.041,5.744,0.264,8.617,0.376
		c0.911,0.035,1.826-0.019,2.738-0.054c4.01-0.154,7.793,1.138,11.664,1.848c5.291,0.97,10.616,1.842,15.82,3.173
		c4.188,1.071,8.243,2.688,12.307,4.197c4.331,1.609,8.706,3.16,12.87,5.139c3.767,1.79,7.275,4.121,10.896,6.216
		c0.241,0.14,0.458,0.32,0.696,0.464c8.545,5.147,16.5,11.073,23.718,17.968c3.147,3.006,6.425,5.901,9.345,9.117
		c6.606,7.278,12.07,15.39,16.764,24.024c0.474,0.873,0.98,1.758,1.627,2.503c2.069,2.387,2.959,5.364,4.181,8.167
		c2.008,4.604,4.349,9.124,5.769,13.911c2.502,8.436,4.755,16.979,5.831,25.749C289.442,133.199,289.911,139.168,290.3,143.142z
		 M145.703,282.513c0.021-0.146,0.042-0.291,0.062-0.437c1.239,0,2.483,0.076,3.716-0.014c4.776-0.349,9.551-0.727,14.322-1.139
		c3.974-0.343,7.923-0.768,11.79-1.896c2.432-0.711,5.046-0.798,7.479-1.507c4.325-1.259,8.601-2.707,12.851-4.205
		c6.603-2.327,12.886-5.374,18.959-8.84c2.458-1.402,4.827-2.973,7.165-4.571c3.919-2.678,7.922-5.261,11.626-8.215
		c3.672-2.928,6.978-6.31,10.515-9.411c4.995-4.379,8.887-9.727,12.923-14.909c3.248-4.17,6.155-8.636,8.466-13.453
		c1.708-3.563,3.821-6.937,5.43-10.539c3.854-8.632,6.45-17.688,8.479-26.904c0.83-3.775,1.834-7.569,2.1-11.4
		c0.457-6.612,0.635-13.265,0.482-19.89c-0.128-5.532-0.757-11.065-1.414-16.568c-1.03-8.622-3.158-17.047-5.771-25.288
		c-1.813-5.719-4.558-11.153-7.054-16.638c-0.848-1.862-2.35-3.416-3.312-5.238c-7.102-13.444-16.413-25.141-28.107-34.816
		c-6.193-5.123-12.441-10.259-19.576-14.118c-0.243-0.131-0.457-0.316-0.685-0.475c-3.678-2.562-7.523-4.797-11.754-6.356
		c-3.255-1.2-6.427-2.625-9.686-3.815c-4.187-1.53-8.351-3.208-12.656-4.308c-5.206-1.331-10.551-2.117-15.832-3.156
		c-2.271-0.447-4.514-1.211-6.8-1.354c-4.898-0.306-9.816-0.327-14.727-0.404c-1.014-0.016-2.032,0.329-3.049,0.336
		c-1.354,0.01-2.712-0.257-4.062-0.21c-2.536,0.088-5.069,0.29-7.599,0.494c-1.584,0.127-3.207,0.165-4.733,0.554
		c-6.058,1.545-12.084,3.212-18.122,4.834c-0.424,0.114-0.851,0.218-1.274,0.335c-5.478,1.516-10.768,3.535-15.789,6.189
		c-3.527,1.864-6.88,4.059-10.42,5.897c-5.033,2.613-9.885,5.517-14.4,8.924c-3.15,2.376-6.036,5.101-9.051,7.657
		c-1.18,1-2.453,1.898-3.572,2.961c-0.95,0.904-1.662,2.058-2.611,2.962c-4.744,4.518-8.421,9.904-12.235,15.158
		c-1.956,2.694-3.299,5.825-5.09,8.65c-3.438,5.423-7.246,10.621-9.282,16.828c-1.502,4.58-3.745,8.911-4.561,13.728
		c-0.163,0.961-0.685,1.858-1.017,2.794c-0.648,1.828-1.339,3.644-1.894,5.5c-0.329,1.101-0.435,2.269-0.632,3.408
		c-0.68,3.929-1.632,7.834-1.968,11.792c-0.493,5.804-0.648,11.643-0.735,17.47c-0.04,2.656,0.413,5.321,0.666,7.979
		c0.344,3.613,0.458,7.272,1.128,10.825c0.96,5.088,2.264,10.116,3.555,15.135c0.993,3.861,1.795,7.842,3.372,11.469
		c5.658,13.02,12.017,25.645,21.12,36.736c6.107,7.442,12.683,14.351,20.063,20.531c8.636,7.231,18.271,12.802,28.473,17.441
		c3.192,1.451,6.595,2.442,9.767,3.932c7.315,3.436,15.057,5.221,22.992,6.332c4.265,0.597,8.55,1.05,12.812,1.663
		C139.608,281.39,142.651,281.986,145.703,282.513z"/>
	<path fill-rule="evenodd" clip-rule="evenodd" d="M129.667,210.523c-1.16-0.475-1.414-1.519-1.746-2.475
		c-0.849-2.449-1.594-4.937-2.512-7.359c-0.404-1.067-1.128-2.014-1.707-3.014c-0.16,0.05-0.32,0.101-0.48,0.15
		c0,0.868-0.192,1.791,0.033,2.596c1.094,3.916,2.261,7.813,3.5,11.687c0.256,0.802,0.867,1.522,1.422,2.19
		c1.148,1.378,1.585,2.928,1.773,4.71c0.456,4.317,0.958,8.646,1.796,12.9c0.391,1.982,1.567,3.822,2.462,5.691
		c0.901,1.882,0.585,2.702-1.45,2.944c-1.498,0.178-3.04,0.25-4.536,0.103c-2.766-0.272-5.414,0.069-8.008,1.007
		c-0.525,0.189-1.064,0.347-1.581,0.558c-2.455,1.002-4.912,1.428-7.59,0.777c-1.601-0.388-3.338-0.174-5.002-0.347
		c-1.347-0.141-2.844-0.153-3.562-2.158c1.136-0.102,2.128-0.308,3.104-0.249c1.269,0.076,2.52,0.451,3.788,0.526
		c0.75,0.045,1.577-0.106,2.272-0.399c3.193-1.346,6.011-3.262,8.559-5.626c2.864-2.658,3.571-5.9,3.01-9.604
		c-1.529-10.095-3.938-19.95-7.781-29.438c-0.546-1.348-0.849-2.852-0.948-4.305c-0.082-1.19,0.052-2.53,0.542-3.596
		c0.95-2.06,0.961-3.984,0.014-5.985c-0.205-0.433-0.377-0.882-0.54-1.332c-0.519-1.439-0.56-2.88-0.05-4.341
		c0.301-0.863,0.597-1.741,0.755-2.638c0.213-1.206-0.205-2.203-1.329-2.819c-0.769-0.423-1.564-0.801-2.313-1.256
		c-1.072-0.652-1.316-1.416-0.734-2.53c0.308-0.588,0.776-1.107,1.238-1.595c2.527-2.67,4.981-5.418,7.644-7.946
		c2.193-2.084,4.642-3.9,6.977-5.836c0.307-0.254,0.664-0.47,0.908-0.776c2.965-3.719,7.346-5.272,11.34-7.405
		c0.832-0.444,1.837-0.374,2.417,0.41c1.96,2.655,4.184,5.204,5.622,8.13c1.43,2.907,0.271,5.848-1.723,8.329
		c-0.673,0.838-1.365,1.688-2.178,2.378c-1.075,0.913-2.271,1.686-3.428,2.499c-1.226,0.862-2.46,1.713-3.703,2.55
		c-0.685,0.461-1.344,1.022-2.103,1.301c-3.598,1.319-7.225,2.561-10.845,3.821c-3.392,1.182-4.913,4.489-3.175,7.647
		c1.159,2.106,2.91,3.879,4.298,5.868c1.089,1.562,2.219,3.141,2.989,4.864c1.201,2.688,2.306,5.452,3.101,8.282
		C131.243,203.101,130.854,206.823,129.667,210.523z M116.674,188.347c-0.146,0.084-0.293,0.167-0.44,0.251
		c-0.091,0.34-0.204,0.676-0.269,1.021c-0.433,2.298,0.169,4.453,1.082,6.505c2.546,5.722,3.962,11.767,5.16,17.866
		c0.743,3.787,1.295,7.611,1.896,11.425c0.165,1.049,0.603,1.506,1.679,1.116c0.982-2.534,0.613-5.133,0.305-7.689
		c-0.763-6.339-2.126-12.567-4.021-18.66c-0.991-3.186-2.245-6.296-3.521-9.383C118.165,189.88,117.311,189.158,116.674,188.347z
		 M120.151,171.99c0.254-0.25,0.8-0.628,1.133-1.143c1.829-2.827,4.407-4.685,7.471-5.944c1.844-0.759,3.685-1.525,5.536-2.268
		c2.071-0.832,4.18-1.578,6.22-2.479c1.719-0.759,3.127-1.955,3.888-3.727c0.165-0.384,0.147-1.102-0.103-1.359
		c-0.797-0.823-2.384-0.884-3.428-0.296c-2.469,1.39-4.822,3.073-7.433,4.104c-4.893,1.932-9.103,4.917-13.317,7.92
		c-0.898,0.641-1.715,1.603-2.177,2.599C117.175,171.047,117.936,171.981,120.151,171.99z M127.554,224.54
		c-0.063,0.514,0.049,1.128-0.205,1.399c-1,1.066-0.851,2.39-0.894,3.627c-0.043,1.263,0.136,2.539,0.295,3.8
		c0.144,1.139,1.15,1.293,1.99,1.332c0.342,0.016,0.839-0.592,1.055-1.021C131.258,230.76,130.393,227.24,127.554,224.54z"/>
	<path fill-rule="evenodd" clip-rule="evenodd" d="M185.593,233.338c-0.393-0.518-0.803-1.021-1.174-1.555
		c-4.714-6.778-9.375-13.595-14.169-20.315c-1.026-1.439-2.564-2.504-3.795-3.811c-0.661-0.702-1.168-1.549-1.735-2.318
		c0.216-0.172,0.242-0.211,0.271-0.213c2.154-0.203,2.252-0.452,1.671-2.629c-0.256-0.961-0.166-2.016-0.228-3.028
		c-0.064-1.06,0.56-2.391-0.808-2.988c-1.288-0.563-1.933,0.522-2.603,1.371c-0.147,0.188-0.321,0.355-0.486,0.53
		c-1.151,1.214-1.518,1.149-2.156-0.174c1.705-1.558,3.422-2.998,4.955-4.611c0.404-0.426,0.304-1.39,0.311-2.107
		c0.003-0.314-0.257-0.677-0.486-0.939c-1.461-1.676-2.887-3.39-4.459-4.956c-0.546-0.544-1.448-0.812-2.236-1.013
		c-1.815-0.462-2.087-0.695-2.077-2.604c0.045-8.086,1.139-15.952,4.267-23.517c1.204-2.913,1.719-6.122,2.442-9.222
		c0.789-3.375,1.429-6.784,2.181-10.167c0.775-3.481,3.065-6.231,7.594-6.299c1.383-0.02,2.763-0.888,4.121-1.427
		c0.503-0.2,0.938-0.57,1.453-0.894c0.214,0.278,0.439,0.467,0.533,0.708c1.089,2.787,2.285,5.541,3.199,8.384
		c1.172,3.643,1.413,7.441,1.177,11.246c-0.046,0.731-0.611,1.431-0.938,2.145c-0.172-0.02-0.343-0.038-0.515-0.058
		c-0.182-0.571-0.461-1.132-0.522-1.715c-0.093-0.87,0.062-1.771-0.066-2.631c-0.094-0.629-0.341-1.334-0.754-1.794
		c-0.641-0.715-1.666-0.483-1.831,0.449c-0.31,1.752-0.688,3.577-0.5,5.313c0.398,3.672-0.517,7.037-1.704,10.408
		c-2.216,6.29-5.611,11.988-8.81,17.791c-2.39,4.339-2.362,8.883-0.647,13.418c0.779,2.061,2.6,3.329,4.347,4.51
		c6.734,4.547,11.394,10.73,14.572,18.123c0.737,1.716,1.528,3.409,2.193,4.885c-2.226-3.001-4.532-6.227-6.978-9.345
		c-0.819-1.046-1.936-1.891-3.029-2.67c-0.387-0.274-1.146-0.196-1.655-0.03c-0.165,0.054-0.224,0.957-0.066,1.37
		c0.364,0.954,0.7,2.036,1.386,2.732c3.152,3.205,5.11,7.218,7.624,10.853c2.152,3.112,4.563,6.047,6.875,9.046
		c2.07,2.684,4.191,5.329,6.229,8.038c0.491,0.652,0.838,1.46,1.066,2.249c0.144,0.496-0.056,1.092-0.091,1.52
		c-1.838-0.428-3.488-0.69-5.054-1.211c-1.396-0.465-2.39-1.572-2.583-3.048c-0.637-4.879-3.148-8.94-5.688-12.936
		c-3.614-5.687-7.485-11.209-11.209-16.826c-0.484-0.731-1.096-0.695-1.619-0.385c-0.264,0.155-0.437,0.946-0.276,1.255
		c1.117,2.145,2.232,4.303,3.537,6.335c2.778,4.331,5.68,8.582,8.506,12.883c0.334,0.509,0.51,1.12,0.759,1.685
		C185.807,233.212,185.701,233.274,185.593,233.338z M172.958,144.596c-0.113,2.189-0.5,4.284-0.251,6.299
		c0.271,2.183-0.191,4.085-0.933,6.047c-0.519,1.373-1.065,2.786-1.247,4.226c-0.56,4.447-1.757,8.657-3.966,12.577
		c-0.938,1.665-1.788,3.383-2.603,5.112c-0.276,0.586-0.565,1.425,0.292,1.77c0.798,0.321,1.61,0.259,2.129-0.716
		c1.669-3.132,3.559-6.157,5.059-9.366c3.176-6.794,4.351-14.065,4.579-21.506C176.095,146.514,175.243,145.271,172.958,144.596z"/>
	<path fill-rule="evenodd" clip-rule="evenodd" d="M98.589,254.497c-0.071-1.188-0.218-2.622-0.23-4.056
		c-0.019-2.276,0.593-2.914,2.845-3.067c0.956-0.064,1.918-0.056,2.876-0.037c7.508,0.149,15.014,0.354,22.522,0.448
		c3.9,0.05,7.805-0.164,11.705-0.097c1.325,0.023,2.664,0.468,3.952,0.865c0.982,0.302,1.753,0.06,2.609-0.376
		c0.642-0.326,1.396-0.555,2.112-0.589c4.338-0.205,8.678-0.451,13.019-0.476c5.474-0.032,10.948,0.13,16.422,0.217
		c1.724,0.028,2.437,0.552,2.442,2.245c0.012,3.148-0.123,6.301-0.297,9.445c-0.068,1.231-0.833,1.836-2.234,1.854
		c-1.473,0.02-2.946-0.147-4.42-0.206c-4.029-0.157-8.058-0.337-12.088-0.44c-5.073-0.131-10.148-0.19-15.223-0.286
		c-8.387-0.156-16.774-0.301-25.161-0.485c-2.834-0.063-5.665-0.29-8.498-0.328c-2.033-0.027-4.068,0.172-6.103,0.198
		c-1.51,0.021-3.025-0.025-4.531-0.133c-1.057-0.075-1.661-0.743-1.712-1.812C98.556,256.506,98.589,255.625,98.589,254.497z"/>
	<path fill-rule="evenodd" clip-rule="evenodd" d="M98.704,266.821c0.299-1.073,0.866-1.314,1.758-1.277
		c7.902,0.335,15.804,0.703,23.71,0.908c5.589,0.146,11.196,0.286,16.775,0.01c6.863-0.34,13.717-0.03,20.573-0.154
		c2.417-0.044,4.839,0.113,7.258,0.207c3.617,0.141,7.233,0.36,10.852,0.432c1.327,0.026,2.661-0.402,3.991-0.399
		c3.634,0.007,7.267,0.156,10.9,0.197c1.108,0.013,2.219-0.175,3.33-0.201c0.289-0.008,0.584,0.244,0.876,0.376
		c-0.21,0.249-0.371,0.593-0.638,0.728c-0.854,0.43-1.724,0.854-2.63,1.151c-5.153,1.69-10.405,3.014-15.654,4.375
		c-4.402,1.142-8.885,1.456-13.335,2.104c-3.194,0.465-6.414,0.814-9.636,1.014c-2.301,0.143-4.626,0.006-6.937-0.104
		c-3.509-0.168-7.012-0.454-10.521-0.633c-7.974-0.406-15.963-0.735-23.753-2.67c-3.438-0.854-6.795-2.027-10.182-3.081
		c-1.483-0.462-2.978-0.912-4.408-1.511C100.18,267.934,99.441,267.298,98.704,266.821z"/>
	<path fill-rule="evenodd" clip-rule="evenodd" d="M122.082,112.213c0-0.923-0.05-1.521,0.01-2.109
		c0.137-1.33-0.645-1.977-1.647-2.645c-2.875-1.917-5.7-3.911-8.503-5.932c-0.727-0.523-1.364-1.083-2.39-0.862
		c0.224,1.785,1.259,3.036,2.396,4.215c1.499,1.555,3.041,3.066,4.532,4.627c0.493,0.516,0.92,1.104,1.309,1.703
		c0.147,0.227,0.236,0.732,0.113,0.841c-0.221,0.195-0.619,0.214-0.949,0.25c-0.136,0.015-0.316-0.083-0.429-0.184
		c-3.956-3.556-8.451-6.653-10.619-11.787c-1.054-2.493-1.654-5.189-2.82-7.62c-1.373-2.861-3.131-5.537-4.737-8.285
		c-0.137-0.234-0.348-0.468-0.582-0.596c-1.939-1.059-2.158-2.903-2.289-4.825c-0.124-1.823-0.054-3.723-0.568-5.439
		c-0.5-1.669-1.586-3.177-2.502-4.704c-0.577-0.961-1.554-1.729-1.175-3.434c1.73,2.128,3.287,4.044,4.843,5.959
		c0.1-0.043,0.199-0.087,0.298-0.13c-0.117-0.462-0.184-0.944-0.358-1.384c-0.797-2.011-1.63-3.993-3.592-5.227
		c-0.306-0.192-0.543-0.726-0.545-1.104c-0.002-0.423,0.298-0.847,0.467-1.271c0.375,0.224,0.878,0.361,1.104,0.688
		c0.812,1.179,1.499,2.443,2.303,3.627c0.207,0.303,0.67,0.432,1.016,0.641c0.101-0.428,0.384-0.912,0.271-1.273
		c-0.428-1.369-1.015-2.687-1.481-4.044c-0.276-0.804-0.438-1.648-0.651-2.474c0.148-0.082,0.295-0.164,0.443-0.245
		c0.297,0.377,0.692,0.712,0.874,1.139c1.121,2.637,2.188,5.297,3.294,7.942c0.081,0.193,0.325,0.318,0.512,0.493
		c0.896-0.634,0.814-1.508,0.557-2.289c-0.647-1.969-1.4-3.903-2.116-5.849c-0.121-0.328-0.271-0.645-0.411-0.972
		c1.151-0.381,1.942-0.106,2.424,1.224c0.661,1.827,1.064,3.748,1.574,5.629c0.24,0.883,0.419,1.787,0.732,2.643
		c0.115,0.315,0.536,0.518,0.817,0.772c0.249-0.281,0.584-0.523,0.729-0.85c0.403-0.909,0.652-1.893,1.114-2.766
		c0.222-0.418,0.788-0.656,1.197-0.975c0.162,0.458,0.529,0.955,0.45,1.367c-0.547,2.852-1.065,5.718-1.833,8.514
		c-0.671,2.444-1.205,4.855-1.074,7.413c0.063,1.237,0.391,2.275,1.264,3.121c2.207,2.138,4.392,4.301,6.66,6.373
		c2.539,2.319,4.533,5.053,6.221,8.007c1.089,1.905,2.577,2.91,4.776,2.708c1.928-0.177,3.854-0.399,5.77-0.677
		c0.254-0.037,0.592-0.499,0.638-0.802c0.283-1.853,1.132-3.369,2.437-4.699c0.834-0.852,1.652-1.763,2.27-2.773
		c0.946-1.546,2.262-1.904,3.897-1.595c0.547,0.104,1.111,0.203,1.618,0.419c2.605,1.113,5.375,1.059,8.119,1.203
		c0.237,0.013,0.483,0.002,0.714-0.046c1.979-0.414,3.944-0.911,5.938-1.224c0.702-0.11,1.49,0.163,2.205,0.375
		c0.281,0.083,0.644,0.474,0.652,0.735c0.01,0.271-0.308,0.67-0.584,0.808c-0.564,0.281-1.184,0.51-1.804,0.609
		c-3.747,0.598-6.873,2.49-9.858,4.674c-3.146,2.302-6.553,4.195-10.292,5.185c-3.296,0.872-6.349,2.095-9.11,4.042
		c-0.805,0.568-1.426,1.391-2.165,2.061C123.171,111.484,122.714,111.756,122.082,112.213z M99.188,78.178
		c0.15,0.864,0.264,1.854,0.506,2.81c0.199,0.787,0.688,1.387,1.628,1.217c0.938-0.169,1.072-1.004,0.96-1.671
		c-0.309-1.833-0.745-3.648-1.214-5.448c-0.069-0.265-0.578-0.518-0.914-0.565c-0.16-0.023-0.513,0.425-0.566,0.701
		C99.408,76.154,99.324,77.105,99.188,78.178z M112.358,98.527c-0.822-2.172-2.204-3.478-3.948-4.623
		C108.349,95.611,110.195,97.817,112.358,98.527z"/>
	<path fill-rule="evenodd" clip-rule="evenodd" d="M240.13,205.684c-0.312,0.189-0.62,0.387-0.938,0.567
		c-3.123,1.773-4.392,6.915-2.393,9.935c0.356,0.539,0.927,1.088,1.517,1.295c3.716,1.306,4.493,4.299,4.626,7.722
		c0.032,0.835,0.111,1.677,0.278,2.494c0.083,0.403,0.412,0.757,0.63,1.134c0.206-0.397,0.522-0.776,0.596-1.197
		c0.206-1.178,0.414-2.37,0.434-3.561c0.034-2.152,0.905-4.027,1.707-5.943c0.852-2.033,1.21-4.052-0.241-6.022
		c-1.016-1.379-2.284-1.784-4.277-1.1c0.335,0.229,0.551,0.396,0.784,0.534c1.94,1.145,2.558,3.188,1.297,4.445
		c-0.832,0.83-1.857,1.214-3.062,1.016c-2.672-0.438-4.185-3.296-3.014-5.707c1.574-3.242,4.157-4.495,7.796-3.782
		c2.669,0.522,5.21,3.607,5.483,6.594c0.169,1.852-0.142,3.58-1.122,5.174c-0.439,0.714-0.85,1.446-1.312,2.145
		c-1.176,1.778-1.905,3.657-1.687,5.856c0.09,0.9-0.023,1.838-0.16,2.741c-0.303,2.005-1.918,2.817-3.64,1.728
		c-0.805-0.51-1.484-1.328-2.014-2.142c-1.255-1.927-1.656-4.148-1.714-6.399c-0.035-1.352-0.614-2.065-1.862-2.375
		c-0.891-0.221-1.77-0.49-2.66-0.707c-1.807-0.44-2.756-1.678-3.157-3.398c-0.217-0.931-0.355-1.881-0.516-2.824
		c-0.165-0.971-0.691-1.604-1.672-1.799c-0.742-0.146-1.488-0.32-2.239-0.366c-1.225-0.075-2.214,0.404-2.692,1.586
		c-0.418,1.032-0.714,2.114-1.09,3.165c-0.424,1.185-0.935,2.359-2.193,2.852c-0.485,0.189-1.163,0.149-1.644-0.049
		c-0.175-0.072-0.08-0.919-0.017-1.399c0.04-0.303,0.241-0.588,0.388-0.872c1.965-3.837,1.093-7.604-2.375-10.259
		c-0.253-0.194-0.592-0.365-0.708-0.628c-0.199-0.448-0.354-0.972-0.31-1.443c0.014-0.151,0.716-0.353,1.096-0.339
		c3.033,0.114,6.064,0.327,9.098,0.406c3.274,0.086,6.552,0.025,9.826,0.1c1.034,0.023,2.063,0.274,3.096,0.421
		C240.093,205.414,240.112,205.549,240.13,205.684z"/>
	<path fill-rule="evenodd" clip-rule="evenodd" d="M215.058,234.891c5.268,0,10.537-0.082,15.802,0.029
		c3.428,0.072,6.851,0.411,10.272,0.671c0.438,0.033,0.858,0.305,1.287,0.466c-0.216,0.484-0.308,1.103-0.666,1.433
		c-2.534,2.338-5.559,3.688-8.955,4.218c-3.774,0.588-7.549,0.455-11.337,0.093c-1.297-0.124-2.632-0.002-3.935,0.143
		c-1.751,0.195-2.21,0.603-2.395,2.414c-0.273,2.695-0.429,5.405-0.543,8.112c-0.074,1.754,0.017,3.515,0.029,5.271
		c0.008,1.187-0.364,2.234-1.358,2.921c-1.045,0.721-2.104,1.472-3.259,1.974c-1.628,0.707-2.461,0.227-2.688-1.519
		c-0.205-1.575-0.279-3.181-0.249-4.77c0.117-6.03,0.295-12.059,0.466-18.088c0.017-0.594,0.101-1.192,0.225-1.773
		c0.243-1.139,1-1.67,2.146-1.67c1.719-0.002,3.438-0.001,5.157-0.001C215.058,234.84,215.058,234.865,215.058,234.891z"/>
	<path fill-rule="evenodd" clip-rule="evenodd" d="M224.331,93.377c-0.646-1.298-1.357-2.569-1.919-3.903
		c-0.478-1.137-0.748-2.359-1.183-3.517c-0.145-0.385-0.541-0.99-0.771-0.967c-0.563,0.055-1.399,0.28-1.582,0.683
		c-0.432,0.952-0.557,2.045-0.785,3.086c-0.068,0.308-0.069,0.63-0.164,0.942c-0.779-2.865-1.437-5.721,0.593-8.399
		c1.105-1.458-0.128-5.443-1.641-6.234c-0.412-0.216-1.089-0.322-1.463-0.128c-0.656,0.34-1.042,0.045-1.469-0.278
		c-2.81-2.129-4.281-6.466-3.406-9.897c0.455-1.781,1.514-3.16,2.856-4.328c0.314-0.273,0.882-0.256,1.332-0.373
		c0.088,0.126,0.175,0.252,0.263,0.379c-0.542,0.897-1.079,1.796-1.626,2.69c-1.013,1.659-1.056,2.775-0.146,3.986
		c0.989,1.317,1.625,1.311,2.725,0.13c0.868-0.933,1.844-1.764,2.993-2.849c-0.122,0.884-0.102,1.659-0.348,2.336
		c-0.612,1.684-0.259,3.147,0.542,4.689c0.608,1.173,0.859,2.53,1.298,3.794c0.466,1.342,0.933,2.687,1.467,4.002
		c0.249,0.612,1.317,0.67,1.802,0.158c1.316-1.392,2.658-2.761,3.931-4.192c0.964-1.083,1.813-2.29,1.699-3.83
		c-0.037-0.5-0.354-1.201-0.75-1.404c-0.684-0.351-1.287,0.088-1.633,0.788c-0.136,0.275-0.308,0.533-0.624,1.076
		c-0.339-0.546-0.679-0.88-0.763-1.27c-0.251-1.163,0.668-2.763,1.719-3.145c1.074-0.391,2.671,0.122,3.213,1.247
		c0.513,1.063,0.837,2.234,1.119,3.389c0.528,2.169,2.282,3.171,3.938,4.257c0.257,0.168,0.846,0.131,1.104-0.056
		c2.425-1.755,3.969-3.434,2.864-6.606c-0.143-0.412-0.232-0.844-0.314-1.274c-0.034-0.181,0.016-0.379,0.04-0.792
		c0.459,0.179,0.814,0.274,1.126,0.449c1.037,0.582,2.062,1.187,3.085,1.792c0.874,0.517,0.762,1.327,0.577,2.123
		c-0.75,3.245-2.797,5.608-5.313,7.607c-2.087,1.659-4.332,3.128-6.343,4.872c-1.488,1.292-2.506,2.985-2.672,5.07
		c-0.03,0.37-0.347,0.717-0.616,1.241c-0.895-1.367-0.795-2.639-0.575-3.878c0.455-2.567,1.672-4.784,3.197-6.881
		c0.712-0.979,1.215-2.135,1.656-3.272c0.147-0.378-0.191-0.945-0.308-1.425c-0.444,0.133-1.083,0.122-1.302,0.419
		c-2.236,3.043-5.751,5.351-5.693,9.75c0.005,0.352-0.303,0.845-0.612,1.041c-1.55,0.98-1.775,1.443-1.303,3.197
		c0.207,0.771,0.464,1.528,0.646,2.304c0.092,0.393,0.068,0.812,0.097,1.219C224.704,93.256,224.517,93.316,224.331,93.377z"/>
	<path fill-rule="evenodd" clip-rule="evenodd" d="M220.435,197.774c-0.848-0.418-1.703-0.82-2.536-1.265
		c-0.191-0.102-0.307-0.346-0.655-0.759c1.019-0.263,1.869-0.498,2.728-0.697c0.891-0.206,1.792-0.371,2.686-0.567
		c0.846-0.186,1.146-0.627,0.717-1.469c-0.193-0.378-0.273-0.813-0.396-1.195c1.236-0.904,1.855-0.755,2.696,0.569
		c0.404,0.636,0.732,1.359,1.267,1.86c0.342,0.32,0.999,0.305,1.515,0.44c0.092-0.465,0.22-0.926,0.265-1.395
		c0.029-0.312-0.047-0.636-0.098-0.951c-0.324-2.032-1.175-2.763-3.227-2.766c-0.52-0.001-1.04,0.055-1.559,0.039
		c-1.156-0.034-2.063,0.348-2.789,1.309c-0.834,1.102-2.042,1.345-3.198,0.777c-0.161-0.079-0.314-0.25-0.392-0.415
		c-1.071-2.315,0.363-4.659,2.907-4.676c4.744-0.031,9.49,0.001,14.235-0.021c1.031-0.005,2.063-0.134,3.095-0.191
		c0.276-0.015,0.62-0.074,0.821,0.058c0.461,0.303,1.155,0.685,1.188,1.083c0.035,0.402-0.539,1.124-0.976,1.247
		c-1.139,0.32-2.351,0.541-3.531,0.529c-2.885-0.028-3.65,1.158-3.74,4.602c-0.008,0.284,0.445,0.775,0.749,0.832
		c0.567,0.106,1.237,0.099,1.759-0.118c0.378-0.156,0.628-0.702,0.856-1.118c0.584-1.063,1.424-1.626,2.656-1.772
		c2.226-0.265,4.004,1.759,3.414,3.948c-0.303,1.124-1.13,1.523-2.148,1.552c-4.671,0.131-9.343,0.212-14.014,0.339
		c-0.379,0.01-0.753,0.228-1.084,0.563c2.479,0.239,4.867,1.127,7.359,0.34c0.728-0.23,1.587-0.113,2.378-0.054
		c2.538,0.191,5.073,0.424,7.608,0.655c0.593,0.055,1.241,0.04,1.751,0.288c0.463,0.226,1.073,0.771,1.068,1.168
		c-0.006,0.429-0.572,1.058-1.032,1.229c-0.882,0.33-1.856,0.52-2.801,0.553c-3.713,0.132-7.43,0.213-11.146,0.249
		c-4.071,0.04-8.144,0.022-12.216-0.002c-0.793-0.006-1.587-0.146-2.378-0.251c-0.904-0.119-1.602-0.717-1.561-1.535
		c0.026-0.524,0.699-1.309,1.229-1.46c1.598-0.457,3.267-0.665,4.909-0.963c0.553-0.101,1.108-0.181,1.663-0.271
		C220.465,197.987,220.45,197.881,220.435,197.774z"/>
	<path fill-rule="evenodd" clip-rule="evenodd" d="M160.951,90.929c0.275-1.638,0.262-1.73-1.354-1.601
		c-1.983,0.159-3.949,0.551-5.933,0.706c-1.418,0.111-2.854,0.024-4.281-0.021c-1.553-0.049-3.105-0.152-4.658-0.23
		c-1.9-0.096-2.485-0.876-1.494-2.475c1.504-2.429,3.142-4.805,4.993-6.973c0.706-0.826,2.129-1.324,3.276-1.43
		c2.464-0.228,4.62-1.207,6.731-2.292c1.739-0.894,3.688-0.613,4.576,1.124c2.634,5.149,4.854,10.475,6.312,16.085
		c0.501,1.931-0.076,3.15-1.477,3.701c-1.216,0.479-2.15-0.12-2.918-0.866c-1.083-1.052-2.104-2.196-2.98-3.422
		C161.29,92.602,161.204,91.706,160.951,90.929z"/>
	<path fill-rule="evenodd" clip-rule="evenodd" d="M111.004,136.716c0.913-0.353,1.883-0.605,2.729-1.078
		c3.035-1.695,6.198-2.816,9.717-3.092c3.267-0.256,5.047-1.959,5.649-5.17c0.506-2.699,0.834-5.44,1.08-8.177
		c0.08-0.898-0.307-1.853-0.554-2.761c-0.175-0.643-0.535-0.644-1.052-0.22c-1.17,0.96-1.549,2.267-1.807,3.666
		c-0.085,0.462-0.318,0.897-0.484,1.344c-0.627-0.278-1.47-0.388-1.844-0.866c-1.227-1.568-1.169-3.347-0.295-5.076
		c0.908-1.798,3.734-3.233,5.721-3.026c1.417,0.148,2.371,0.875,2.889,2.176c1.292,3.244,1.395,6.57,0.269,9.836
		c-0.525,1.522-0.553,2.727,0.292,4.138c1.136,1.896,0.129,3.564-2.05,3.628c-1.532,0.045-2.752,0.687-4.071,1.454
		c-1.793,1.042-3.839,1.702-5.841,2.317c-3.236,0.994-6.536,1.781-9.786,2.732c-1.142,0.334-2.221,0.89-3.324,1.356
		c-1.295,0.547-2.187,0.142-3.187-1.465c-0.612-0.984-0.423-2.277,0.543-2.963c0.575-0.409,1.246-0.737,1.923-0.934
		c1.63-0.475,2.89-1.457,4.11-2.586c1.697-1.571,3.407-3.149,5.264-4.518c0.953-0.703,2.211-1.038,3.376-1.392
		c1.137-0.346,2.331-0.505,3.5-0.741c0.272-0.055,0.549-0.117,0.825-0.127c0.957-0.035,1.961,0.02,2.167,1.187
		c0.195,1.106-0.706,1.462-1.559,1.792c-3.347,1.298-6.718,2.54-10.012,3.961c-1.219,0.526-2.318,1.411-3.338,2.287
		c-0.552,0.474-0.823,1.276-1.221,1.93C110.757,136.459,110.881,136.587,111.004,136.716z"/>
	<path fill-rule="evenodd" clip-rule="evenodd" d="M221.374,108.362c3.873,0.129,7.745,0.282,11.619,0.375
		c1.191,0.029,2.387-0.147,3.581-0.16c2.151-0.022,2.859,0.853,2.628,2.972c-0.125,1.147-0.076,2.314-0.089,3.472
		c-0.014,1.319,0.043,2.641-0.021,3.957c-0.113,2.312-0.771,2.898-3.029,3.014c-5.184,0.266-10.365,0.585-15.551,0.837
		c-0.908,0.044-1.846-0.05-2.738-0.236c-0.858-0.18-1.612-0.713-1.631-1.682c-0.033-1.743,0.057-3.488,0.109-5.232
		c0.034-1.156,0.287-2.344,0.094-3.458c-0.258-1.475,0.529-2.432,1.261-3.439c0.205-0.284,0.735-0.428,1.13-0.458
		c0.874-0.067,1.757-0.021,2.637-0.021C221.374,108.323,221.374,108.342,221.374,108.362z M217.3,120.151
		c1.591,0,3.021-0.1,4.428,0.034c1.006,0.096,1.288-0.379,1.389-1.167c0.056-0.431,0.132-0.921-0.014-1.304
		c-0.706-1.864-0.522-3.663,0.208-5.465c0.245-0.606-0.021-1.005-0.667-1.114c-0.824-0.138-1.669-0.188-2.471-0.403
		c-1.018-0.273-1.584-0.005-1.729,1.068C218.074,114.549,217.692,117.297,217.3,120.151z M225.112,118.353
		c1.293,1.03,2.672,0.775,3.998,0.857c0.857,0.053,1.086-0.366,1.192-1.095c0.166-1.141,0.396-2.273,0.616-3.406
		c0.096-0.493-0.884-3.387-1.292-3.648c-0.157-0.1-0.375-0.115-0.569-0.145c-1.64-0.257-3.568,1.773-3.219,3.558
		C226.116,115.893,226.305,117.21,225.112,118.353z M236.332,118.359c0.094-1.781,0.083-3.227,0.268-4.647
		c0.207-1.586-0.034-1.979-1.667-2.08c-0.239-0.014-0.484,0.013-0.717-0.031c-0.902-0.173-1.298,0.311-1.274,1.102
		c0.047,1.625,0.095,3.26,0.321,4.866c0.096,0.672,0.647,1.279,1.038,2.001C235.219,119.022,235.932,118.597,236.332,118.359z"/>
	<path fill-rule="evenodd" clip-rule="evenodd" d="M167.962,106.517c-0.392-0.5-0.678-0.998-1.085-1.356
		c-0.52-0.458-1.091-1.01-1.724-1.153c-1.22-0.276-2.084-0.848-2.747-1.906c-0.345-0.549-0.927-0.966-1.454-1.375
		c-0.151-0.118-0.593-0.105-0.713,0.023c-0.382,0.409-1.01,0.959-0.942,1.35c0.283,1.621,0.471,3.341,2.438,4.064
		c0.6,0.221,1.037,0.962,1.478,1.522c0.763,0.97,1.455,1.995,2.205,2.977c0.654,0.857,0.625,1.843-0.136,2.851
		c-0.732,0.971-1.845,1.414-2.712,0.788c-1.605-1.159-3.229-2.362-4.56-3.81c-0.976-1.061-1.89-1.421-3.236-1.18
		c-2.824,0.508-5.579,0.168-8.199-0.988c-2.332-1.03-2.614-2.652-0.877-4.501c1.956-2.081,4.502-3.26,6.931-4.64
		c1.673-0.95,3.363-0.994,5.243-1.059c2.56-0.087,4.27,1.124,6.134,2.43c0.964,0.675,2.119,1.079,3.192,1.597
		C169.13,103.083,169.507,104.888,167.962,106.517z"/>
	<path fill-rule="evenodd" clip-rule="evenodd" d="M77.705,114.59c0.981-0.092,1.961-0.222,2.945-0.268
		c1.598-0.074,2.108,0.478,1.653,2.018c-0.286,0.968-0.903,1.837-1.371,2.751c-0.121,0.237-0.239,0.476-0.359,0.713
		c0.091,0.077,0.183,0.153,0.274,0.23c0.932-0.625,1.858-1.26,2.798-1.874c0.884-0.578,1.301-0.372,1.388,0.666
		c0.013,0.159,0.027,0.324,0,0.479c-0.259,1.464-0.21,2.767,1.546,3.3c0.192,0.059,0.413,0.324,0.456,0.528
		c0.303,1.453,1.319,2.382,2.256,3.426c0.424,0.474,0.489,1.389,0.486,2.103c-0.008,1.856,0.132,2.12,1.93,2.561
		c0.966,0.237,1.908,0.496,1.893,1.764c-0.019,1.575-0.671,2.321-2.127,2.686c-0.683,0.171-1.317,0.541-1.97,0.83
		c-0.456,0.202-0.905,0.42-1.421,0.66c0.015-3.126-2.11-4.596-4.217-5.96c-1.615-1.046-1.836-1.717-0.544-3.136
		c0.67-0.736,1.348-1.469,1.964-2.249c0.182-0.229,0.167-0.614,0.243-0.928c-0.325-0.024-0.679-0.142-0.97-0.053
		c-0.989,0.302-1.937,0.747-2.935,1.008c-1.428,0.375-2.108-0.142-2.001-1.602c0.081-1.111-0.402-1.83-1.176-2.455
		c-0.984-0.795-1.46-1.697-1.068-3.027c0.259-0.879-0.163-1.566-1.02-2.066c-0.753-0.439-1.385-1.092-2.056-1.667
		c-0.574-0.493-1.136-1.001-1.69-1.516c-0.921-0.856-0.782-1.256,0.212-1.973c1.078-0.777,2.074-1.706,2.958-2.699
		c0.497-0.559,0.856-0.899,1.579-0.517c0.208,0.11,0.452,0.154,0.679,0.23c2.353,0.787,2.587,1.631,1.011,3.586
		c-0.556,0.69-1.085,1.402-1.627,2.104C77.518,114.358,77.611,114.474,77.705,114.59z M84.425,127.327
		c-0.339,0.68-0.724,1.161-0.765,1.67c-0.018,0.218,0.681,0.494,1.054,0.743c0.297-0.452,0.73-0.876,0.828-1.367
		C85.585,128.155,84.954,127.802,84.425,127.327z"/>
	<path fill-rule="evenodd" clip-rule="evenodd" d="M214.387,94.959c-1.888-0.059-2.536-0.543-2.804-2.135
		c-0.288-1.71-0.826-3.23-2.348-4.269c-0.322-0.221-0.451-0.724-0.669-1.097c0.074-0.097,0.148-0.194,0.222-0.291
		c0.591,0.148,1.187,0.275,1.768,0.453c0.494,0.151,0.958,0.416,1.459,0.53c0.933,0.213,1.229-0.108,1.074-1.051
		c-0.426-2.583-1.984-4.152-4.471-4.711c-1.979-0.445-4.015-0.626-6.01-1.011c-3.637-0.701-6.113-2.847-7.72-6.165
		c-0.665-1.374-1.596-2.631-2.503-3.87c-0.71-0.969-1.612-1.816-0.968-3.172c2.681,0.396,5.163,3.004,5.693,5.908
		c0.221,1.208,0.344,2.472,1.439,3.309c1.026,0.784,1.677,0.57,1.715-0.723c0.03-1.056-0.185-2.141-0.436-3.178
		c-0.206-0.852-0.072-1.339,0.801-1.643c0.379-0.132,0.677-0.519,0.992-0.812c0.418-0.387,0.816-0.795,1.224-1.195
		c0.164,0.046,0.328,0.092,0.492,0.138c0,1.291-0.021,2.582,0.005,3.872c0.033,1.643,1.464,3.403,2.929,3.653
		c1.241,0.211,1.83-0.311,1.495-1.51c-0.309-1.103-0.788-2.17-1.292-3.204c-0.609-1.25-0.483-2.445-0.014-3.708
		c1.115,0.062,1.497,0.858,1.614,1.676c0.313,2.188,1.433,3.927,2.777,5.588c2.052,2.535,2.969,5.482,3.282,8.708
		c0.161,1.655,0.784,3.181-0.131,4.902c-0.4,0.753,0.152,2.006,0.251,3.035C214.32,93.637,214.344,94.292,214.387,94.959z"/>
	<path fill-rule="evenodd" clip-rule="evenodd" d="M235.241,94.505c0.251-1.6,1.302-2.49,2.395-3.251
		c1.601-1.116,3.323-2.055,4.961-3.119c1.16-0.753,1.104-1.266-0.084-1.976c-0.402-0.241-0.813-0.523-1.108-0.879
		c-0.943-1.14-1.529-1.281-2.88-0.732c-3.756,1.526-6.269,4.156-7.334,8.108c-0.07,0.262-0.184,0.513-0.338,0.939
		c-0.7-1.376-0.905-2.684-0.132-3.824c2.193-3.234,4.33-6.562,8.405-7.808c2.603-0.796,4.539-2.439,5.824-4.85
		c0.181-0.338,0.441-0.635,0.711-1.015c0.908,0.707,0.848,1.491,0.456,2.286c-0.439,0.895-0.984,1.738-1.421,2.633
		c-0.838,1.718-0.336,3.29,1.354,4.154c0.212,0.108,0.798-0.084,0.917-0.3c0.574-1.039,1.086-2.118,1.547-3.213
		c0.448-1.065,0.773-2.182,1.221-3.247c0.213-0.506,0.487-1.089,0.91-1.381c0.657-0.452,1.733-1.154,2.153-0.914
		c0.903,0.518,1.502,1.568,2.226,2.4c-0.315,0.25-0.658,0.738-0.941,0.706c-1.067-0.121-1.438,0.426-1.581,1.322
		c-0.231,1.456-0.437,2.916-0.693,4.366c-0.658,3.707-2.402,6.597-6.182,7.805c-0.854,0.273-1.812,0.229-2.723,0.316
		C240.325,93.281,237.595,92.694,235.241,94.505z"/>
	<path fill-rule="evenodd" clip-rule="evenodd" d="M151.145,235.993c-0.093,0.981-0.116,2.384-0.381,3.739
		c-0.335,1.717-1.64,2.626-3.269,2.641c-2.341,0.02-4.694-0.182-7.025-0.443c-1.35-0.151-1.439-0.719-1.165-2.075
		c0.167-0.827,0.004-1.823-0.315-2.622c-0.438-1.099-1.233-2.049-1.744-3.125c-0.367-0.774-0.67-1.64-0.732-2.484
		c-0.098-1.332,0.614-2.114,1.938-2.271c0.98-0.116,1.98-0.063,2.971-0.104c1.986-0.081,3.98-0.09,5.955-0.291
		c1.745-0.178,3.133,0.593,3.416,2.334C151.022,232.7,151.017,234.146,151.145,235.993z"/>
	<path fill-rule="evenodd" clip-rule="evenodd" d="M34.504,195.349c0.521,0.039,1.042,0.077,1.563,0.119
		c1.264,0.102,2.567,0.051,3.783,0.35c1.433,0.353,1.696,1.218,1.014,2.525c-0.479,0.919-1.06,1.792-1.468,2.739
		c-0.517,1.2-0.037,1.925,1.264,1.812c1.014-0.087,2.014-0.429,3-0.727c1.756-0.531,3.49-1.138,5.248-1.663
		c0.564-0.168,1.174-0.21,1.767-0.252c0.925-0.066,1.704,0.214,1.908,1.226c0.21,1.041-0.051,1.986-1.164,2.32
		c-1.251,0.376-2.543,0.768-3.833,0.832c-2.879,0.143-5.523,1.157-8.252,1.883c-1.333,0.355-2.732,0.565-4.11,0.623
		c-1.369,0.058-1.986-0.849-1.529-2.132c0.386-1.083,0.966-2.097,1.437-3.151c0.275-0.617,0.568-1.238,0.738-1.888
		c0.226-0.865-0.1-1.529-1.036-1.683c-1.256-0.206-2.523-0.345-3.788-0.493c-2.292-0.271-2.947-1.519-1.474-3.285
		c1.184-1.42,2.706-2.567,4.127-3.778c1.605-1.367,3.322-2.607,4.875-4.03c0.739-0.678,1.276-0.44,1.882-0.03
		c0.625,0.423,0.801,1.088,0.323,1.659c-0.838,1.002-1.786,1.913-2.699,2.852c-1.236,1.269-2.482,2.527-3.724,3.79
		C34.404,195.094,34.454,195.221,34.504,195.349z"/>
	<path fill-rule="evenodd" clip-rule="evenodd" d="M32.181,117.913c0.761,0.345,1.496,0.77,2.288,1.017
		c1.368,0.428,2.789,0.691,4.153,1.128c0.789,0.253,1.692,0.646,1.454,1.733c-0.24,1.095-1.173,1.186-2.103,1.107
		c-0.475-0.041-0.949-0.124-1.415-0.229c-3.888-0.871-7.778-1.729-11.655-2.645c-0.962-0.227-1.892-0.615-2.81-0.993
		c-0.82-0.337-1.047-1.053-0.648-1.778c0.553-1.005,1.153-2.026,1.927-2.86c1.274-1.374,2.763-2.547,4.046-3.913
		c0.782-0.833,1.535-0.758,2.344-0.277c0.539,0.321,1.001,0.784,1.463,1.221c1.151,1.086,2.066,1.234,3.475,0.517
		c0.107-0.054,0.225-0.098,0.315-0.173c3.002-2.51,4.79-1.077,6.447,1.611c0.753,1.222,1.575,2.4,2.35,3.609
		c0.235,0.367,0.498,0.747,0.604,1.158c0.208,0.801,0.272,1.771-0.628,2.066c-0.505,0.165-1.418-0.17-1.822-0.592
		c-0.986-1.03-1.77-2.253-2.661-3.377c-1.299-1.64-2.542-1.794-4.207-0.534c-0.445,0.336-0.828,0.76-1.288,1.07
		c-0.456,0.308-0.974,0.524-1.465,0.781C32.291,117.677,32.236,117.795,32.181,117.913z M31.842,117.938
		c-0.334-1.797-1.1-2.812-2.298-3.503c-1.578-0.91-2.481-0.692-3.479,0.811c-0.521,0.785-0.49,1.431,0.511,1.758
		c1.017,0.332,2.031,0.693,3.074,0.909C30.303,118.047,31.007,117.938,31.842,117.938z"/>
	<path fill-rule="evenodd" clip-rule="evenodd" d="M238.074,181.397c0.55,0.299,1.1,0.598,1.963,1.066
		c-0.44,0.484-0.763,1.124-1.264,1.327c-0.827,0.336-1.765,0.505-2.664,0.542c-3.308,0.134-6.619,0.162-9.927,0.273
		c-2.063,0.069-4.149,0.473-6.178,0.267c-2.826-0.287-3.313-1.289-2.43-4.058c-0.794-0.103-1.596-0.106-2.33-0.332
		c-0.595-0.182-1.29-0.51-1.604-0.992c-0.296-0.453-0.151-1.193-0.201-1.809c0.525-0.004,1.075-0.114,1.569,0.007
		c1.366,0.333,2.712,0.67,4.097,0.126c0.037-0.015,0.078-0.023,0.118-0.022c2.884,0.041,5.768,0.111,8.652,0.119
		c3.824,0.011,7.648-0.022,11.472-0.052c0.636-0.005,1.271-0.132,1.905-0.117c0.749,0.017,1.567,0.205,1.591,1.099
		c0.024,0.931-0.576,1.521-1.562,1.647c-1.019,0.132-2.032,0.3-3.048,0.452C238.181,181.094,238.127,181.246,238.074,181.397z
		 M236.354,181.113c-3.801-0.682-7.479-0.274-11.353-0.027c0.271,0.306,0.413,0.605,0.556,0.606
		c3.489,0.018,6.979,0.008,10.467-0.024C236.115,181.668,236.203,181.377,236.354,181.113z"/>
	<path fill-rule="evenodd" clip-rule="evenodd" d="M47.54,97.497c-0.452-0.245-1.431-0.573-2.147-1.201
		c-2.929-2.564-6.414-4.154-9.851-5.84c-1.99-0.976-2.263-2.009-1.124-3.903c1.745-2.903,3.461-5.824,5.192-8.735
		c0.244-0.411,0.521-0.804,0.755-1.221c0.553-0.984,1.313-1.352,2.37-0.804c0.705,0.365,1.42,0.721,2.081,1.155
		c1.929,1.267,3.836,2.566,5.745,3.864c0.394,0.268,0.794,0.546,1.125,0.885c0.725,0.744,0.68,1.561,0.114,2.387
		c-0.557,0.814-1.289,0.722-2.001,0.315c-0.83-0.472-1.608-1.034-2.414-1.549c-0.671-0.429-1.31-0.944-2.037-1.241
		c-0.679-0.277-1.461-0.464-2.188-0.433c-1.875,0.079-4.779,4.034-4.205,5.818c0.231,0.719,0.918,1.431,1.585,1.84
		c1.389,0.852,2.912,1.479,4.362,2.235c1.094,0.571,2.248,1.086,3.208,1.838c0.714,0.559,1.334,1.386,1.689,2.223
		C50.363,96.458,49.5,97.516,47.54,97.497z"/>
	<path fill-rule="evenodd" clip-rule="evenodd" d="M174.506,24.31c-0.792-0.086-1.585-0.238-2.378-0.241
		c-1.015-0.004-2.058,0.092-2.381,1.337c-0.318,1.226,0.131,2.089,1.451,2.655c0.949,0.407,1.964,0.661,2.928,1.04
		c0.784,0.309,1.73,0.7,1.524,1.712c-0.216,1.055-1.125,1.539-2.208,1.405c-1.223-0.151-2.432-0.422-3.652-0.597
		c-0.887-0.127-1.687,0.043-2.109,0.963c-0.414,0.9-0.465,1.623,0.712,2.045c1.16,0.417,2.263,0.996,3.386,1.514
		c0.29,0.133,0.587,0.272,0.838,0.464c0.831,0.634,1.813,1.286,1.39,2.516c-0.399,1.16-1.507,1.343-2.585,1.31
		c-2.782-0.086-5.321-0.989-7.655-2.467c-1.351-0.855-1.621-1.929-1.075-3.388c1.438-3.838,2.889-7.672,4.236-11.542
		c1.121-3.217,1.301-3.404,4.575-2.604c1.233,0.301,2.45,0.717,3.621,1.209c0.778,0.328,1.869,0.789,1.479,1.825
		c-0.203,0.537-1.26,0.751-1.932,1.11C174.616,24.487,174.561,24.398,174.506,24.31z"/>
	<path fill-rule="evenodd" clip-rule="evenodd" d="M237.299,126.187c1.744,1.632,3.14,3.283,3.002,5.708
		c-0.181,3.186-0.469,6.367-0.641,9.553c-0.058,1.069,0.168,2.151,0.144,3.224c-0.058,2.634-0.239,5.266-0.269,7.901
		c-0.028,2.59,0.083,5.182,0.108,7.772c0.012,1.188-0.074,2.379-0.052,3.567c0.056,2.943,0.166,5.887,0.209,8.831
		c0.007,0.466-0.223,0.937-0.343,1.404c-0.508-0.274-1.231-0.426-1.476-0.852c-0.397-0.693-0.631-1.559-0.672-2.364
		c-0.22-4.226-0.356-8.455-0.521-12.684c-0.141-3.587-0.324-7.174-0.411-10.763c-0.134-5.501-0.228-11.004-0.281-16.507
		C236.082,129.356,236.281,127.739,237.299,126.187z"/>
	<path fill-rule="evenodd" clip-rule="evenodd" d="M149.102,26.334c-0.074,1.181-0.147,2.316-0.217,3.452
		c-0.084,1.39-0.048,2.801-0.286,4.165c-0.207,1.181-0.975,1.556-2.145,1.348c-1.054-0.187-1.404-0.838-1.362-1.891
		c0.186-4.662,0.314-9.326,0.477-13.989c0.061-1.739,0.886-2.229,2.249-1.147c1.133,0.899,2.032,2.104,2.978,3.222
		c0.745,0.879,1.324,1.909,2.119,2.735c1.646,1.708,2.964,1.509,3.954-0.668c0.637-1.402,1.047-2.921,1.436-4.42
		c0.304-1.171,1.026-1.557,1.894-0.727c0.443,0.425,0.836,1.133,0.85,1.723c0.021,0.933-0.211,1.898-0.484,2.806
		c-0.759,2.521-1.605,5.017-2.397,7.528c-0.703,2.233-2.29,2.642-3.861,0.895c-0.874-0.973-1.554-2.12-2.351-3.166
		C151.28,27.314,150.588,26.423,149.102,26.334z"/>
	<path fill-rule="evenodd" clip-rule="evenodd" d="M20.541,131.566c0.006-3.373,3.005-6.405,6.362-7.215
		c3.964-0.957,6.685,1.082,8.889,3.559c3.777,4.243,0.696,11.258-5.109,12.215C25.682,140.949,20.531,136.603,20.541,131.566z
		 M28.803,136.708c1.494,0.007,2.446-0.381,3.311-1.352c1.331-1.494,1.627-3.914,0.651-5.329c-0.938-1.361-4.84-2.794-6.168-2.264
		c-0.072,0.029-0.129,0.094-0.197,0.135c-2,1.205-2.885,3.297-2.291,5.421C24.667,135.316,26.581,136.698,28.803,136.708z"/>
	<path fill-rule="evenodd" clip-rule="evenodd" d="M194.851,29.402c2.203-0.081,4.313,0.269,6.179,1.505
		c2.358,1.562,3.24,3.883,2.73,6.552c-0.735,3.844-2.929,6.71-6.62,8.197c-2.712,1.093-5.084,0.266-7.346-1.468
		c-3.808-2.918-3.894-5.975-1.806-9.64c0.929-1.63,2.261-3.102,3.665-4.36c0.755-0.676,2.051-0.748,3.102-1.092
		C194.788,29.199,194.82,29.3,194.851,29.402z M195.96,42.364c2.646,0.033,4.531-2.151,4.595-5.323
		c0.054-2.713-2.335-4.853-5.416-4.851c-2.386,0.002-4.983,2.643-4.999,5.083C190.121,40.348,192.374,42.32,195.96,42.364z"/>
	<path fill-rule="evenodd" clip-rule="evenodd" d="M214.102,228.434c0.281-0.282,0.699-0.518,0.819-0.857
		c0.464-1.311,0.812-2.661,1.244-3.983c0.227-0.689,0.54-1.351,0.833-2.067c1.558,1.074,1.86,2.157,1.319,4.135
		c-1.1,4.021-3.585,6.038-7.932,6.441c-0.596,0.055-1.193,0.197-1.784,0.171c-0.635-0.027-1.326-0.132-1.354-1.021
		c-0.025-0.837,0.532-1.089,1.226-1.181c0.236-0.03,0.479-0.019,0.719-0.027c1.604-0.056,2.238-0.709,2.428-2.341
		c0.323-2.786-0.686-5.076-2.496-7.108c-0.716-0.804-1.424-1.625-2.045-2.502c-2.199-3.108-1.061-7.013,2.451-8.512
		c2.676-1.143,5.675-0.565,7.588,1.459c1.472,1.559,1.695,4.101,0.503,5.883c-0.662,0.989-1.597,1.439-2.78,1.25
		c-1.103-0.177-2.082-0.577-2.549-1.721c-0.375-0.916-0.037-2.04,0.728-2.397c0.84-0.392,1.795,0.012,2.335,0.893
		c0.206,0.336,0.595,0.561,0.9,0.836c0.127-0.486,0.44-1.013,0.347-1.452c-0.352-1.648-1.686-2.957-2.972-3.095
		c-1.424-0.152-3.006,0.659-3.586,2.096c-0.286,0.708-0.372,1.672-0.132,2.378c0.472,1.388,1.124,2.746,1.901,3.992
		c1.429,2.29,2.107,4.717,1.874,7.406c-0.032,0.379,0.029,0.766,0.048,1.149C213.858,228.316,213.98,228.375,214.102,228.434z"/>
	<path fill-rule="evenodd" clip-rule="evenodd" d="M211.167,35.108c1.035,0.295,1.428,1.121,1.498,1.99
		c0.163,2.025,0.181,4.062,0.262,6.093c0.036,0.915-0.026,1.851,0.148,2.74c0.324,1.646,1.342,2.067,2.675,1.05
		c1.36-1.038,2.561-2.282,3.884-3.374c0.664-0.548,1.337-1.448,2.371-0.675c0.791,0.591,0.874,1.603-0.181,2.741
		c-1.671,1.803-3.499,3.484-5.41,5.033c-1.538,1.248-3.297,2.224-4.982,3.337c-0.795-1.938-1.486-3.811-1.094-5.952
		c0.174-0.95,0.019-1.994-0.157-2.964c-0.19-1.049-0.76-1.224-1.602-0.531c-0.579,0.477-1.099,1.052-1.549,1.655
		c-0.979,1.31-1.893,2.668-2.842,4c-0.185,0.259-0.385,0.521-0.628,0.72c-0.729,0.593-1.509,1.215-2.417,0.348
		c-0.841-0.803-0.553-1.683,0.052-2.471c0.849-1.106,1.813-2.129,2.616-3.266c2.371-3.355,4.687-6.75,7.028-10.126
		C210.927,35.332,211.05,35.231,211.167,35.108z"/>
	<path fill-rule="evenodd" clip-rule="evenodd" d="M51.622,235.335c0.443-1.842,0.833-3.426,1.204-5.014
		c0.336-1.436,0.729-2.863,0.957-4.315c0.269-1.715-0.747-2.629-2.426-2.205c-0.999,0.252-1.949,0.695-2.92,1.058
		c-0.635,0.237-1.257,0.516-1.902,0.72c-0.934,0.297-1.911,0.584-2.506-0.569c-0.385-0.746,0.213-2.034,1.317-2.507
		c1.166-0.498,2.436-0.746,3.637-1.169c1.958-0.69,3.89-1.449,5.845-2.148c1.828-0.652,3.384,0.651,2.94,2.556
		c-0.324,1.389-0.949,2.704-1.359,4.077c-0.361,1.211-0.67,2.445-0.888,3.689c-0.172,0.986,0.472,1.305,1.229,0.86
		c1.708-1.002,3.376-2.08,4.985-3.233c0.769-0.551,1.356-1.352,2.041-2.024c0.34-0.334,0.676-0.702,1.082-0.938
		c0.784-0.455,1.647-0.784,2.387,0.052c0.595,0.673,0.272,1.729-0.621,2.466c-3.911,3.224-7.791,6.484-11.74,9.66
		c-0.548,0.44-1.507,0.779-2.117,0.606C52.25,236.81,51.961,235.854,51.622,235.335z"/>
	<path fill-rule="evenodd" clip-rule="evenodd" d="M55.981,62.973c4.59,0.118,9.388,5.574,8.529,9.535
		c-0.624,2.873-2.359,4.876-5.146,5.812c-2.87,0.964-5.485,0.186-7.676-1.753c-4.06-3.593-3.746-8.786,0.621-12.091
		C53.46,63.604,54.555,62.611,55.981,62.973z M52.626,71.17c-0.038,2.173,1.974,4.052,4.648,4.255
		c1.704,0.129,3.956-2.379,4.027-4.276c0.078-2.068-2.327-4.293-4.74-4.387C55.058,66.705,52.654,69.397,52.626,71.17z"/>
	<path fill-rule="evenodd" clip-rule="evenodd" d="M22.557,176.102c0.494,0.711,1.079,1.344,1.417,2.09
		c0.441,0.972,0.598,2.073,1.037,3.046c0.723,1.601,1.962,1.937,3.688,1.139c1.748-0.809,2.129-1.718,1.421-3.431
		c-0.183-0.441-0.396-0.871-0.611-1.299c-0.584-1.165-0.473-2.217,0.689-3.378c0.513,0.767,1.052,1.427,1.424,2.17
		c0.443,0.886,0.666,1.885,1.125,2.762c0.746,1.421,1.938,1.678,3.434,1.127c2.723-1.002,2.869-2.544,1.758-4.896
		c-0.323-0.684-0.668-1.37-0.875-2.093c-0.148-0.516-0.251-1.16-0.067-1.626c0.212-0.536,0.764-1.308,1.165-1.306
		c0.504,0.002,1.257,0.583,1.464,1.093c1.003,2.469,1.983,4.962,2.732,7.517c0.688,2.344,0.14,2.899-2.145,3.546
		c-4.642,1.313-9.251,2.742-13.87,4.139c-1.621,0.49-2.054,0.384-2.698-1.183c-0.787-1.914-1.426-3.889-2.147-5.83
		C21.026,178.412,21.09,177.271,22.557,176.102z"/>
	<path fill-rule="evenodd" clip-rule="evenodd" d="M137.816,20.515c-0.168,0.483-0.432,1.273-0.721,2.054
		c-0.235,0.636-0.524,1.251-0.746,1.891c-0.597,1.721-0.27,3.188,1.158,4.408c0.909,0.776,1.77,1.617,2.588,2.488
		c0.719,0.766,0.878,1.712,0.391,2.658c-0.567,1.102-1.77,1.388-2.718,0.6c-0.729-0.606-1.303-1.396-1.986-2.063
		c-1.27-1.241-2.371-1.117-3.334,0.386c-0.623,0.973-1.141,2.013-1.774,2.978c-0.709,1.081-1.553,1.372-2.413,0.902
		c-1.012-0.552-1.075-1.433-0.675-2.37c0.544-1.277,1.095-2.56,1.754-3.779c1.56-2.887,1.3-4.676-1.067-6.937
		c-0.603-0.576-1.154-1.213-1.68-1.862c-0.505-0.624-0.599-1.327-0.013-1.955c0.614-0.657,1.373-0.833,2.158-0.324
		c0.7,0.454,1.333,1.01,2.025,1.478c1.44,0.974,2.451,0.779,3.46-0.638c0.277-0.389,0.545-0.788,0.789-1.198
		c0.317-0.532,0.579-1.031,1.386-0.733C137.37,18.86,137.823,19.316,137.816,20.515z"/>
	<path fill-rule="evenodd" clip-rule="evenodd" d="M120.864,29.731c-1.362,0.783-2.69,1.555-4.027,2.311
		c-1.465,0.83-1.987,1.71-1.745,2.934c0.22,1.113,0.893,1.744,2.008,1.601c1.177-0.152,2.327-0.515,3.493-0.765
		c0.737-0.158,1.48-0.377,2.224-0.391c1.012-0.019,1.495,0.848,1.006,1.73c-0.204,0.368-0.532,0.7-0.874,0.952
		c-2.171,1.592-4.676,2.407-7.271,2.923c-1.624,0.323-2.362-0.232-2.893-1.778c-1.268-3.693-2.539-7.386-3.83-11.071
		c-0.884-2.524-0.507-3.553,1.914-4.684c1.623-0.758,3.278-1.459,4.958-2.076c0.373-0.137,1.27,0.112,1.314,0.315
		c0.136,0.634,0.215,1.506-0.122,1.961c-0.437,0.588-1.286,0.882-1.978,1.266c-0.487,0.27-1.039,0.431-1.507,0.727
		c-0.799,0.503-1.073,1.275-0.832,2.18c0.249,0.932,1.065,1.045,1.822,1.01c0.95-0.044,1.93-0.13,2.831-0.41
		C118.712,28.043,119.79,28.24,120.864,29.731z"/>
	<path fill-rule="evenodd" clip-rule="evenodd" d="M217.933,126.235c0.393,0.814,0.974,1.592,1.141,2.45
		c0.449,2.306,0.802,4.639,1.03,6.976c0.115,1.175-0.17,2.383-0.189,3.577c-0.048,2.83-0.061,5.661-0.059,8.492
		c0.002,4.757-0.028,9.514,0.067,14.269c0.044,2.188,0.407,4.368,0.518,6.558c0.072,1.425,0.02,2.865-0.111,4.286
		c-0.066,0.725-0.277,1.632-1.27,1.627c-0.995-0.006-1.343-0.836-1.395-1.657c-0.194-3.103-0.403-6.209-0.455-9.316
		c-0.134-8.031-0.199-16.064-0.263-24.097c-0.015-1.752,0.097-3.505,0.14-5.257c0.035-1.431,0.062-2.863,0.078-4.294
		c0.013-1.136,0.002-2.271,0.002-3.408C217.422,126.372,217.677,126.303,217.933,126.235z"/>
	<path fill-rule="evenodd" clip-rule="evenodd" d="M84.938,46.807c-0.559-2.311-1.115-4.622-1.677-6.931
		c-0.253-1.042-0.601-2.07-0.755-3.126c-0.149-1.027,0.395-1.987,1.375-2.053c0.641-0.044,1.715,0.589,1.94,1.171
		c0.757,1.955,1.332,4,1.769,6.055c0.587,2.765,1,5.568,1.445,8.363c0.105,0.663,0.114,1.362,0.036,2.029
		c-0.17,1.437-1.466,2.341-2.768,1.751c-1.659-0.752-3.203-1.76-4.785-2.677c-2.415-1.4-4.84-2.784-7.22-4.242
		c-1.012-0.62-2.012-1.32-2.831-2.166c-0.363-0.375-0.527-1.333-0.299-1.783c0.231-0.455,1.117-0.924,1.609-0.829
		c1.027,0.197,2.062,0.637,2.952,1.201c2.053,1.301,4.021,2.735,6.025,4.114c0.229,0.158,0.45,0.354,0.706,0.445
		c0.612,0.217,1.243,0.381,1.866,0.566c0.149-0.594,0.298-1.188,0.447-1.781C84.828,46.877,84.883,46.842,84.938,46.807z"/>
	<path fill-rule="evenodd" clip-rule="evenodd" d="M228.049,126.626c1.646,1.431,2.174,3.226,2.158,5.188
		c-0.042,5.233-0.189,10.465-0.213,15.698c-0.013,2.793,0.188,5.587,0.213,8.382c0.039,4.671,0.015,9.343,0.018,14.014
		c0.001,1.028,0.107,2.071-0.041,3.076c-0.063,0.43-0.632,1.054-1.016,1.089c-0.355,0.031-0.999-0.544-1.115-0.962
		c-0.317-1.142-0.549-2.338-0.59-3.52c-0.125-3.711-0.18-7.425-0.196-11.138c-0.008-1.833,0.198-3.667,0.184-5.5
		c-0.056-6.913-0.196-13.826-0.224-20.739c-0.007-1.626,0.3-3.254,0.485-4.879C227.737,127.125,227.901,126.93,228.049,126.626z"/>
	<path fill-rule="evenodd" clip-rule="evenodd" d="M222.666,126.34c1.146,0.413,1.239,1.296,1.293,2.109
		c0.354,5.335,0.732,10.67,0.967,16.011c0.104,2.378-0.139,4.77-0.166,7.155c-0.012,1.111,0.164,2.225,0.169,3.337
		c0.018,4.028-0.019,8.057,0.005,12.084c0.009,1.473,0.135,2.944,0.195,4.417c0.023,0.558,0.151,1.162-0.018,1.662
		c-0.169,0.502-0.646,0.9-0.989,1.345c-0.425-0.359-1.148-0.666-1.223-1.087c-0.308-1.757-0.53-3.544-0.586-5.326
		c-0.161-5.149-0.243-10.301-0.324-15.452c-0.062-3.91-0.088-7.821-0.105-11.732c-0.012-2.39-0.069-4.785,0.06-7.168
		C222.075,131.272,222.409,128.861,222.666,126.34z"/>
	<path fill-rule="evenodd" clip-rule="evenodd" d="M70.586,248.484c-4.12,0.007-6.125-2.265-7.761-5.236
		c-2.211-4.017-0.139-6.867,2.886-9.207c3.552-2.748,8.125-2.433,10.869,0.677c2.275,2.577,2.302,7.263,0.079,10.382
		C75.065,247.335,72.959,248.558,70.586,248.484z M75.747,240.259c0.02-2.72-3.793-5.787-6.477-5.21
		c-2.276,0.488-3.517,1.861-3.864,4.272c-0.508,3.528,2.989,6.745,6.483,5.965C74.017,244.811,75.73,242.577,75.747,240.259z"/>
	<path fill-rule="evenodd" clip-rule="evenodd" d="M83.492,261.671c-0.632-0.32-1.572-0.734-2.448-1.255
		c-1.37-0.813-2.716-1.671-4.031-2.57c-0.438-0.3-0.909-0.732-1.067-1.204c-0.136-0.403,0.033-1.041,0.303-1.397
		c0.158-0.208,0.842-0.209,1.177-0.057c1.378,0.629,2.677,1.438,4.072,2.019c1.874,0.779,2.915,0.249,3.668-1.611
		c0.353-0.87,0.21-1.482-0.597-2.047c-1.042-0.728-2.062-1.516-2.965-2.407c-0.445-0.438-1.117-1.037-0.47-1.865
		c0.644-0.824,1.358-0.474,2.029-0.105c0.803,0.44,1.555,0.973,2.347,1.435c1.336,0.778,1.907,0.685,2.925-0.429
		c1.888-2.065,1.712-3.383-0.686-4.92c-0.939-0.603-1.93-1.127-2.859-1.745c-0.384-0.256-0.879-0.629-0.947-1.014
		c-0.103-0.592-0.032-1.33,0.262-1.829c0.177-0.301,0.921-0.359,1.408-0.354c0.366,0.004,0.783,0.215,1.085,0.451
		c2.006,1.572,3.992,3.172,5.976,4.772c0.724,0.584,0.878,1.317,0.426,2.133c-2.243,4.037-4.463,8.086-6.77,12.086
		C85.812,260.661,85.113,261.567,83.492,261.671z"/>
	<path fill-rule="evenodd" clip-rule="evenodd" d="M66.877,181.472c-0.52,0-1.04-0.023-1.558,0.003
		c-2.637,0.134-4.447,3.112-3.357,5.511c0.531,1.168,2.089,1.841,3.677,1.703c1.776-0.152,3.036-1.101,4.087-2.432
		c2.087-2.642,3.004-2.671,5.132-0.004c0.365,0.458,0.63,1.361,0.417,1.809c-0.206,0.432-1.162,0.85-1.663,0.733
		c-1.542-0.357-2.458,0.179-3.475,1.333c-1.872,2.124-4.319,3.1-7.119,2.05c-2.828-1.062-4.369-3.282-4.708-6.255
		c-0.313-2.744,2.218-6.291,4.978-7.231c1.763-0.6,3.502-1.271,5.249-1.921c0.979-0.365,2.319,0.365,2.541,1.402
		c0.375,1.753-0.737,3.214-2.521,3.295C67.997,181.492,67.437,181.472,66.877,181.472z"/>
	<path fill-rule="evenodd" clip-rule="evenodd" d="M75.274,58.388c-0.836-0.311-2.157-0.87-3.521-1.288
		c-0.87-0.267-1.804-0.325-2.709-0.478c0.012,0.956-0.18,1.97,0.077,2.854c0.567,1.95,1.395,3.822,2.042,5.75
		c0.25,0.744,0.386,1.555,0.398,2.338c0.006,0.4-0.294,1.045-0.604,1.153c-0.454,0.158-1.225,0.126-1.532-0.168
		c-0.642-0.612-1.229-1.387-1.553-2.207c-1.13-2.858-2.103-5.779-3.207-8.648c-0.63-1.637-1.411-3.214-2.098-4.83
		c-0.202-0.474-0.374-0.976-0.454-1.482c-0.281-1.77,0.571-2.556,2.19-1.869c2.792,1.186,5.52,2.523,8.275,3.796
		c1.23,0.568,2.517,1.041,3.669,1.736c0.584,0.353,1.16,1.043,1.33,1.689C77.861,57.817,77.096,58.444,75.274,58.388z"/>
	<path fill-rule="evenodd" clip-rule="evenodd" d="M101.654,45.845c-0.346-0.307-0.989-0.836-1.578-1.42
		c-0.18-0.179-0.287-0.507-0.295-0.77c-0.092-3.062-1.732-5.578-2.864-8.277c-0.504-1.201-1.219-1.915-2.621-1.763
		c-1.306,0.142-2.624,0.285-3.932,0.247c-0.524-0.015-1.035-0.512-1.551-0.791c0.333-0.529,0.541-1.294,1.02-1.551
		c3.478-1.862,7.002-3.639,10.536-5.395c0.55-0.274,1.324-0.573,1.81-0.385c0.658,0.256,1.402,0.889,1.601,1.52
		c0.136,0.43-0.498,1.24-0.971,1.686c-0.441,0.417-1.136,0.557-1.698,0.858c-1.364,0.729-1.797,1.493-1.262,2.938
		c0.731,1.972,1.667,3.87,2.543,5.787c0.63,1.375,1.392,2.697,1.942,4.102C104.987,44.301,103.842,45.892,101.654,45.845z"/>
	<path fill-rule="evenodd" clip-rule="evenodd" d="M232.125,125.742c1.545,1.025,1.771,2.509,1.872,3.89
		c0.48,6.526,1.086,13.057,1.186,19.593c0.075,4.969-0.607,9.945-0.813,14.923c-0.064,1.573,0.348,3.163,0.49,4.749
		c0.1,1.11,0.237,2.244,0.108,3.338c-0.063,0.532-0.627,1.324-1.086,1.421c-0.822,0.174-1.09-0.661-1.138-1.36
		c-0.078-1.15-0.066-2.307-0.098-3.46c-0.08-2.874-0.192-5.748-0.236-8.623c-0.035-2.271,0.043-4.546,0.012-6.817
		c-0.03-2.194-0.17-4.387-0.201-6.581c-0.041-2.833-0.001-5.667-0.034-8.5c-0.043-3.677-0.129-7.354-0.183-11.031
		C231.998,126.826,232.074,126.368,232.125,125.742z"/>
	<path fill-rule="evenodd" clip-rule="evenodd" d="M264.612,150.947c-0.138,0.192-0.345,0.634-0.685,0.913
		c-0.324,0.265-0.776,0.47-1.191,0.513c-2.177,0.223-3.581,1.506-4.807,3.192c-2.137,2.94-3.494,3.055-6.015,0.465
		c-1.244-1.278-2.329-2.72-3.418-4.14c-0.67-0.873-0.451-1.617,0.412-2.37c0.92-0.802,1.68-1.794,2.466-2.74
		c1.792-2.158,2.993-2.305,5.215-0.583c0.22,0.171,0.426,0.362,0.627,0.556c1.661,1.601,3.553,2.648,5.942,2.659
		C263.908,149.417,264.586,149.72,264.612,150.947z M252.792,147.506c0.26,1.744,0.832,2.442,1.706,2.334
		c0.843-0.104,1.559-0.451,1.229-1.428C255.181,146.796,253.827,148.039,252.792,147.506z M255.694,152.66
		c-1.192-0.422-2.505-0.239-2.701,0.378c-0.223,0.698,0.258,0.844,0.812,0.994C255.049,154.371,255.261,154.247,255.694,152.66z"/>
	<path fill-rule="evenodd" clip-rule="evenodd" d="M20.632,171.005c-0.971,0.05-1.312-0.853-1.489-1.844
		c-0.252-1.412-0.469-2.833-0.641-4.257c-0.297-2.452-0.563-4.908-0.808-7.366c-0.042-0.427,0.024-0.886,0.138-1.304
		c0.21-0.771,0.809-1.062,1.458-0.653c0.541,0.34,0.932,0.93,1.353,1.438c0.112,0.136,0.101,0.38,0.13,0.577
		c0.487,3.347,1.465,3.845,4.848,3.511c2.513-0.249,4.977-0.966,7.475-1.407c0.957-0.17,2.008-0.381,2.9-0.14
		c0.586,0.157,1.189,1.035,1.346,1.695c0.089,0.374-0.625,1.267-1.116,1.396c-2.072,0.54-4.188,0.926-6.303,1.281
		c-1.807,0.305-3.644,0.432-5.448,0.749c-1.789,0.315-2.206,0.919-2.108,2.711c0.03,0.557,0.123,1.109,0.169,1.665
		C22.63,170.198,21.969,170.998,20.632,171.005z"/>
	<path fill-rule="evenodd" clip-rule="evenodd" d="M78.558,209.377c-1.885-0.238-3.246-0.324-4.569-0.596
		c-2.339-0.479-3.07-2.313-1.729-4.306c0.62-0.922,1.371-1.761,2.103-2.602c1.648-1.894,3.299-3.785,5.003-5.627
		c0.339-0.366,0.965-0.753,1.379-0.68c0.377,0.067,0.841,0.709,0.927,1.162c0.313,1.639,0.516,3.302,0.695,4.962
		c0.163,1.519,0.723,2.714,2.092,3.553c0.489,0.3,1.065,1.084,0.983,1.534c-0.103,0.566-0.761,1.316-1.318,1.465
		C82.136,208.772,80.088,209.081,78.558,209.377z M76.701,206.08c0.918-0.414,1.85-0.662,2.561-1.2
		c0.78-0.591,0.754-1.545,0.002-2.161c-0.465-0.38-1.389-0.765-1.789-0.552C76.41,202.734,76.09,204.468,76.701,206.08z"/>
	<path fill-rule="evenodd" clip-rule="evenodd" d="M29.568,147.889c-0.802,0.458-1.612,0.751-2.189,1.292
		c-0.746,0.7-1.303,1.601-1.947,2.41c-1.046,1.315-1.91,1.455-3.26,0.45c-1.626-1.211-3.229-2.454-4.818-3.712
		c-0.784-0.621-1.247-1.395-0.607-2.382c0.56-0.863,1.486-1.037,2.517-0.431c0.683,0.401,1.292,0.928,1.938,1.392
		c1.521,1.091,2.478,1.085,3.853-0.138c0.831-0.74,1.629-1.531,2.341-2.384c0.639-0.768,1.388-0.944,2.228-0.606
		c0.879,0.354,1.727,0.807,2.542,1.294c1.672,0.999,3.269,2.133,4.983,3.052c1.314,0.705,2.112,1.722,2.342,3.115
		c0.104,0.631-0.01,1.543-0.41,1.931c-0.3,0.291-1.36,0.165-1.83-0.15c-1.75-1.173-3.369-2.537-5.092-3.753
		C31.398,148.732,30.507,148.381,29.568,147.889z"/>
	<path fill-rule="evenodd" clip-rule="evenodd" d="M212.631,102.663c4.38,0.145,8.602,0.364,12.826,0.394
		c2.584,0.018,5.169-0.341,7.756-0.375c2.833-0.038,5.669,0.087,8.501,0.2c0.187,0.007,0.523,0.524,0.502,0.78
		c-0.118,1.411-1.108,2.342-2.797,2.418c-2.067,0.094-4.144-0.027-6.216-0.007c-2.59,0.026-5.181,0.173-7.77,0.138
		c-3.104-0.042-6.213-0.157-9.309-0.382c-0.868-0.063-1.741-0.547-2.535-0.979C212.69,104.362,212.369,103.535,212.631,102.663z"/>
	<path fill-rule="evenodd" clip-rule="evenodd" d="M192.064,261.433c0.757-0.527,1.553-1.008,2.258-1.597
		c0.608-0.507,1.114-1.137,1.665-1.712c-0.722-0.287-1.423-0.674-2.172-0.839c-1.083-0.239-2.217-0.25-3.303-0.479
		c-1.646-0.349-2.354-1.558-1.819-3.123c0.795-2.323,2.3-4.199,4.119-5.777c1.293-1.122,5.872,0.582,6.263,2.246
		c0.076,0.32,0.017,0.715-0.1,1.032c-0.804,2.189-1.211,4.392-0.941,6.766c0.224,1.973-0.282,2.368-2.227,2.812
		c-1.187,0.27-2.342,0.672-3.512,1.015C192.218,261.661,192.141,261.547,192.064,261.433z"/>
	<path fill-rule="evenodd" clip-rule="evenodd" d="M103.991,232.747c-0.043-1.683-0.172-3.484,1.805-4.123
		c0.983-0.318,2.175-0.002,3.271,0.041c1.855,0.074,3.71,0.16,5.565,0.239c1.006,0.043,2.094,0.271,2.32,1.301
		c0.142,0.649-0.273,1.612-0.75,2.167c-0.928,1.08-2.064,1.984-3.133,2.94c-1.957,1.752-4.339,2.267-6.87,2.275
		c-1.063,0.004-1.729-0.583-1.879-1.638C104.17,234.889,104.098,233.815,103.991,232.747z"/>
	<path fill-rule="evenodd" clip-rule="evenodd" d="M65.474,87.277c-0.123-0.984-0.488-1.876-0.263-2.58
		c0.35-1.094,1.476-1.66,2.563-1.643c0.623,0.01,1.28,0.651,1.831,1.116c0.273,0.23,0.262,0.778,0.519,1.051
		c0.376,0.4,1.117,1.055,1.283,0.948c0.533-0.343,1.189-0.966,1.221-1.516c0.059-0.996-0.099-2.11-0.518-3.011
		c-1.385-2.982-0.008-5.188,1.795-7.458c1.584,1.277,1.398,2.961,1.176,4.545c-0.121,0.858-0.724,1.641-1.049,2.481
		c-0.147,0.379-0.234,0.822-0.197,1.222c0.069,0.75,0.28,1.486,0.378,2.236c0.357,2.736-0.661,4.888-2.759,6.63
		c-1.617,1.343-2.573,3.024-2.281,5.235c0.061,0.459,0.009,0.934,0.009,1.403c-1.292-0.035-2.106-0.697-2.036-1.835
		c0.06-0.974,0.396-1.932,0.622-2.894c0.416-1.776,0.942-3.535,1.229-5.332c0.222-1.386-0.092-1.576-1.448-1.257
		C66.983,86.752,66.438,86.968,65.474,87.277z"/>
	<path fill-rule="evenodd" clip-rule="evenodd" d="M58.383,104.163c0.317,0.626,0.481,1.467,0.987,1.831
		c0.793,0.57,1.577-0.029,2.238-0.591c0.334-0.284,0.667-0.571,1.012-0.841c1.783-1.395,3.373-1.229,4.945,0.435
		c0.899,0.951,1.883,1.822,2.816,2.741c0.252,0.248,0.513,0.513,0.677,0.819c0.455,0.85,0.259,1.176-0.691,1.143
		c-1.226-0.043-2.369-0.326-3.234-1.301c-0.317-0.357-0.66-0.7-1.03-1.003c-0.756-0.619-1.437-0.945-2.409-0.142
		c-1.375,1.135-2.91,2.082-4.405,3.064c-1.52,0.999-2.679,0.606-3.201-1.141c-0.223-0.745-0.277-1.58-0.223-2.36
		c0.096-1.375-0.516-2.174-1.734-2.667c-0.55-0.223-1.093-0.509-1.565-0.866c-0.851-0.643-0.76-1.254,0.231-1.599
		c1.185-0.412,2.313-1.048,3.684-0.575C58.229,101.712,58.634,102.172,58.383,104.163z"/>
	<path fill-rule="evenodd" clip-rule="evenodd" d="M234.207,64.193c-1.275,1.623-1.097,3.388,0.544,4.972
		c0.543,0.523,1.195,0.937,1.713,1.48c0.18,0.188,0.104,0.619,0.146,0.938c-0.274-0.077-0.652-0.064-0.808-0.245
		c-1.273-1.479-2.611-2.918-3.719-4.517c-1.097-1.582-0.687-3.661,0.874-4.814c0.508-0.375,1.34-0.297,2.012-0.473
		c0.589-0.154,1.607,0.574,1.686-0.632c0.067-1.052-1.215-2.185-2.155-1.909c-0.938,0.275-1.786,0.843-2.692,1.24
		c-0.557,0.244-1.147,0.408-1.724,0.608c0.034-0.639-0.054-1.316,0.127-1.91c0.456-1.5,1.865-2.445,3.426-2.404
		c2.451,0.063,4.506,0.833,5.818,3.102c0.492,0.853,1.162,1.622,1.853,2.331c0.275,0.282,0.824,0.297,1.249,0.434
		c0.101-0.394,0.23-0.784,0.291-1.184c0.039-0.267-0.021-0.548-0.057-1.158c0.591,0.243,1.295,0.328,1.382,0.605
		c0.248,0.795,0.48,1.726,0.29,2.498c-0.336,1.364-1.596,1.849-2.925,1.364c-0.599-0.219-1.173-0.61-1.782-0.666
		c-0.659-0.061-1.48-0.023-1.995,0.323C235.909,65.42,235.946,65.477,234.207,64.193z"/>
	<path fill-rule="evenodd" clip-rule="evenodd" d="M66.291,158.812c-0.609,0.64-1.055,1.234-1.623,1.672
		c-0.688,0.53-1.544,0.849-2.213,1.397c-1.358,1.114-1.202,2.2,0.399,2.886c1.133,0.484,2.324,0.832,3.474,1.278
		c0.516,0.2,1.096,0.394,1.467,0.769c0.418,0.422,0.957,1.108,0.866,1.565c-0.169,0.852-0.933,1.188-1.878,0.951
		c-2.894-0.723-5.804-1.384-8.691-2.13c-0.796-0.206-1.595-0.535-2.29-0.972c-1.202-0.755-1.228-1.719-0.099-2.598
		c2.639-2.053,5.292-4.091,7.988-6.068c0.355-0.26,1.082-0.311,1.484-0.126C65.598,157.63,65.839,158.224,66.291,158.812z"/>
	<path fill-rule="evenodd" clip-rule="evenodd" d="M203.869,164.604c-0.793,0.665-1.5,1.094-1.977,1.703
		c-0.484,0.619-1.107,1.463-1.024,2.127c0.189,1.51-0.187,2.832-0.65,4.194c-0.473,1.387-0.252,2.078,1,2.814
		c0.923,0.542,1.946,0.913,2.883,1.437c0.544,0.304,1.059,0.709,1.48,1.166c0.239,0.261,0.477,0.895,0.345,1.054
		c-0.313,0.377-0.902,0.865-1.281,0.793c-3.166-0.601-6.088-1.858-8.757-3.657c-0.917-0.619-0.933-1.641-0.173-2.602
		c0.271-0.343,0.614-0.627,0.911-0.95c1.182-1.287,1.331-2.256,0.595-3.812c-0.153-0.324-0.308-0.649-0.479-0.965
		c-0.567-1.052-0.258-1.976,0.712-2.438c1.503-0.716,3.087-1.293,4.689-1.741C202.544,163.615,203.146,164.217,203.869,164.604z"/>
	<path fill-rule="evenodd" clip-rule="evenodd" d="M62.975,148.051c-2.287-0.307-4.589-0.531-6.85-0.97
		c-0.682-0.132-1.513-0.729-1.82-1.341c-1.029-2.057-1.049-4.258-0.058-6.339c0.269-0.563,1.094-0.862,1.663-1.282
		c0.416,0.628,0.996,1.206,1.206,1.896c0.273,0.898,0.175,1.904,0.394,2.827c0.101,0.426,0.537,1.022,0.888,1.072
		c0.391,0.056,0.942-0.343,1.268-0.69c0.341-0.363,0.486-0.905,0.735-1.359c0.532-0.972,1.418-1.037,2.069-0.153
		c0.094,0.127,0.178,0.272,0.222,0.422c0.362,1.247,0.777,2.189,2.494,1.886c1.033-0.183,2.16,1.267,2.056,2.238
		c-0.132,1.23-1.115,1.458-2.089,1.567c-0.709,0.081-1.435,0.016-2.153,0.016C62.99,147.911,62.982,147.981,62.975,148.051z"/>
	<path fill-rule="evenodd" clip-rule="evenodd" d="M72.869,100.283c-0.096-2.48,0.288-4.7,2.278-6.249
		c0.805-0.626,1.777-1.05,2.702-1.508c1.986-0.983,3.542-2.206,3.616-4.718c0.063-2.174,1.748-3.407,3.184-4.725
		c0.674-0.617,1.411-1.177,2.175-1.678c0.275-0.18,0.771-0.24,1.057-0.112c0.193,0.087,0.313,0.62,0.263,0.918
		c-0.282,1.655-1.156,2.933-2.579,3.848c-0.298,0.192-0.68,0.494-0.732,0.795c-0.724,4.23-3.222,7.193-6.672,9.496
		c-0.762,0.509-1.556,0.978-2.277,1.54c-1.187,0.925-1.879,2.122-1.932,3.682c-0.013,0.395-0.357,0.777-0.548,1.166
		c-0.178-0.379-0.436-0.743-0.513-1.141C72.801,101.137,72.869,100.644,72.869,100.283z"/>
	<path fill-rule="evenodd" clip-rule="evenodd" d="M255.139,170.57c-1.772-0.224-3.563-0.368-5.32-0.693
		c-1.745-0.324-2.479-1.499-1.69-3.063c0.849-1.681,2.076-3.176,3.206-4.701c0.136-0.184,0.803-0.21,1.038-0.045
		c0.841,0.589,1.718,1.193,2.369,1.97c1.439,1.716,3.184,2.729,5.424,2.868c0.04,0.002,0.081,0.004,0.12,0.012
		c0.904,0.188,1.979,0.32,2.001,1.493c0.021,1.14-1.089,1.312-1.904,1.461C258.664,170.188,256.916,170.344,255.139,170.57z
		 M253.484,165.848c-0.522-0.435-0.973-0.895-1.035-0.847c-0.471,0.359-0.865,0.818-1.283,1.246
		c0.275,0.216,0.635,0.666,0.812,0.603C252.454,166.68,252.852,166.292,253.484,165.848z"/>
	<path fill-rule="evenodd" clip-rule="evenodd" d="M186.26,26.711c-0.288,1.033-0.558,2.071-0.869,3.097
		c-0.821,2.704-1.654,5.404-2.497,8.102c-0.285,0.913-0.53,1.852-0.943,2.707c-0.545,1.129-1.799,1.513-2.977,1.035
		c-1.183-0.48-1.088-1.479-0.887-2.438c0.146-0.696,0.359-1.417,0.718-2.023c1.696-2.876,2.458-6.041,3.043-9.277
		c0.154-0.857,0.469-1.688,0.745-2.52c0.305-0.918,0.954-1.61,1.925-1.421c1.011,0.197,1.606,0.992,1.608,2.103
		c0,0.2,0,0.399,0,0.599C186.171,26.686,186.215,26.699,186.26,26.711z"/>
	<path fill-rule="evenodd" clip-rule="evenodd" d="M259.264,133.774c-0.034,3.204-2.464,6.066-5.111,6.022
		c-2.839-0.048-5.134-2.517-5.06-5.443c0.068-2.722,2.53-5.561,4.897-5.271C256.8,129.427,259.347,130.492,259.264,133.774z
		 M252.038,134.279c-0.016,1.431,0.87,2.651,2.226,3.005c0.288,0.076,0.837,0.108,0.887-0.005c0.486-1.104,1.061-2.213,1.271-3.382
		c0.189-1.056-0.558-1.862-1.515-2.338c-0.253-0.125-0.621-0.196-0.876-0.112C252.871,131.827,252.051,133.037,252.038,134.279z"/>
	<path fill-rule="evenodd" clip-rule="evenodd" d="M257.93,203.937c0.212,1.589-0.17,2.446-1.482,2.663
		c-1.178,0.193-2.438,0.081-3.628-0.105c-0.418-0.065-0.892-0.695-1.076-1.17c-1.027-2.655-1.206-5.432-0.954-8.241
		c0.094-1.042,0.688-1.642,1.76-1.782c1.802-0.236,3.596-0.535,5.399-0.755c0.544-0.065,1.167-0.087,1.65,0.116
		c0.486,0.205,1.144,0.689,1.18,1.1c0.046,0.507-0.344,1.349-0.772,1.541c-0.913,0.41-1.964,0.614-2.974,0.688
		c-2.618,0.194-3.618,1.212-3.579,3.846c0.021,1.396,0.491,1.922,1.916,2.08c0.431,0.048,0.871,0.017,1.307,0.02
		C257.102,203.938,257.527,203.937,257.93,203.937z"/>
	<path fill-rule="evenodd" clip-rule="evenodd" d="M186.065,57.066c0.449,0.311,0.926,0.507,1.212,0.858
		c1.849,2.277,4.419,2.958,7.142,3.435c1.319,0.231,2.638,0.632,3.869,1.16c1.475,0.632,2.222,1.865,2.221,3.518
		c-0.002,1.617-0.27,3.155-1.255,4.82c-0.46-0.851-0.889-1.489-1.165-2.188c-0.65-1.643-1.728-2.725-3.39-3.453
		c-2.725-1.194-5.421-2.499-7.98-4.009C184.947,60.163,184.835,58.721,186.065,57.066z"/>
	<path fill-rule="evenodd" clip-rule="evenodd" d="M77.034,89.685c-0.178-0.486-0.212-0.532-0.201-0.557
		c1.408-3.12,1.107-6.39,0.809-9.646c-0.202-2.203,0.448-3.968,2.227-5.353c1.887-1.469,3.696-3.039,5.558-4.541
		c0.215-0.174,0.685-0.358,0.803-0.259c0.241,0.201,0.369,0.581,0.45,0.911c0.052,0.211-0.017,0.485-0.111,0.696
		c-1.042,2.32-1.858,4.771-4.178,6.266c-1.776,1.144-1.929,3.023-2.209,4.93c-0.286,1.939-0.902,3.846-1.546,5.707
		C78.411,88.494,77.676,88.972,77.034,89.685z"/>
	<path fill-rule="evenodd" clip-rule="evenodd" d="M195.425,157.507c0.793-0.302,1.567-0.673,2.383-0.887
		c1.023-0.268,1.744-0.744,1.911-1.86c0.163-1.095-0.206-1.924-1.099-2.584c-0.738-0.546-1.768-0.902-1.662-2.166
		c2.257-1.162,4.632-0.642,7.325-0.515c-0.456,0.797-0.701,1.531-1.19,2.021c-1.371,1.37-0.967,2.942-0.621,4.49
		c0.06,0.265,0.67,0.449,1.055,0.59c1.057,0.386,2.129,0.729,3.298,1.124c-0.854,1.535-2.038,1.892-3.351,1.838
		c-1.99-0.081-3.985-0.188-5.958-0.445c-0.745-0.098-1.432-0.644-2.146-0.985C195.389,157.92,195.407,157.714,195.425,157.507z"/>
	<path fill-rule="evenodd" clip-rule="evenodd" d="M260.795,181.894c-0.191,0.335-0.422,1.199-0.984,1.639
		c-1.907,1.491-3.922,2.845-5.919,4.217c-0.35,0.24-0.818,0.461-1.218,0.438c-0.531-0.03-1.093-0.24-1.535-0.533
		c-0.102-0.067,0.108-0.907,0.385-1.185c0.838-0.845,1.775-1.591,2.68-2.368c0.241-0.207,0.528-0.366,0.751-0.59
		c1.436-1.437,2.114-2.417-0.541-3.297c-0.975-0.323-1.917-0.785-2.808-1.297c-0.417-0.239-0.768-0.708-0.979-1.152
		c-0.141-0.298-0.095-0.809,0.083-1.087c0.12-0.187,0.645-0.243,0.938-0.166c0.843,0.221,1.668,0.519,2.486,0.823
		c1.415,0.527,2.809,1.113,4.231,1.617C259.898,179.495,260.761,180.34,260.795,181.894z"/>
	<path fill-rule="evenodd" clip-rule="evenodd" d="M203.331,210.021c-0.943,0.289-1.89,0.567-2.829,0.868
		c-2.105,0.674-3.184,2.821-2.329,4.843c0.198,0.468,0.791,0.857,1.292,1.087c0.565,0.26,1.284,0.193,1.839,0.467
		c0.429,0.212,1,0.75,0.975,1.104c-0.03,0.416-0.623,1.109-0.998,1.127c-1.619,0.076-3.262,0.062-4.867-0.143
		c-0.988-0.126-1.398-1.073-1.359-2.008c0.114-2.787,0.281-5.573,0.518-8.352c0.025-0.299,0.654-0.792,0.984-0.777
		c1.864,0.084,3.729,0.245,5.577,0.497c0.467,0.063,0.874,0.558,1.309,0.854C203.404,209.733,203.368,209.878,203.331,210.021z"/>
	<path fill-rule="evenodd" clip-rule="evenodd" d="M254.906,113.784c-3.031-0.027-4.857-1.509-4.852-3.937
		c0.007-2.436,2.089-5.133,3.919-5.148c4.572-0.04,5.637,2.067,5.685,4.575C259.711,112.089,257.79,113.809,254.906,113.784z
		 M256.765,109.07c-0.007-1.266-0.845-2.019-2.284-2.053c-0.919-0.021-1.876,1.114-1.881,2.233
		c-0.006,1.238,0.912,2.253,2.019,2.231C255.826,111.458,256.772,110.394,256.765,109.07z"/>
	<path fill-rule="evenodd" clip-rule="evenodd" d="M177.192,124.605c-0.072,1.322-0.43,2.323-1.605,2.859
		c-1.17,0.534-2.184,0.246-3.067-0.592c-1.899-1.8-2.672-4.115-2.845-6.641c-0.075-1.097,0.426-2.082,1.454-2.55
		c0.488-0.223,1.307-0.3,1.712-0.037C175.394,119.303,176.72,121.772,177.192,124.605z"/>
	<path fill-rule="evenodd" clip-rule="evenodd" d="M243.757,100.429c-1.553,0.091-2.961,0.258-4.368,0.244
		c-7.515-0.077-15.028-0.229-22.543-0.285c-1.902-0.014-3.822,0.523-5.682-0.264c-0.277-0.118-0.503-0.36-0.752-0.545
		c0.264-0.191,0.514-0.524,0.793-0.551c1.386-0.131,2.78-0.255,4.171-0.244c2.347,0.018,4.692,0.187,7.039,0.206
		c4.459,0.037,8.918,0.06,13.376-0.008c1.906-0.029,3.807-0.338,5.714-0.45C242.561,98.469,243.361,98.92,243.757,100.429z"/>
	<path fill-rule="evenodd" clip-rule="evenodd" d="M153.052,135.847c0.268-1.197,0.435-2.429,0.828-3.584
		c0.515-1.511,3.142-2.78,4.661-2.389c1.276,0.328,1.873,1.138,1.488,2.378c-0.661,2.126-1.413,4.229-2.235,6.3
		c-0.409,1.032-1.145,1.849-2.45,1.703c-1.078-0.12-1.763-0.894-2.014-2.348c-0.114-0.665-0.118-1.349-0.172-2.024
		C153.124,135.871,153.087,135.859,153.052,135.847z"/>
	<path fill-rule="evenodd" clip-rule="evenodd" d="M148.887,151.002c1.058-1.307,2.023-2.656,3.16-3.842
		c0.603-0.628,0.67-0.893-0.108-1.293c-0.549-0.282-1.058-0.641-1.585-0.966c-0.013-0.135-0.025-0.27-0.038-0.404
		c0.688-0.284,1.391-0.837,2.063-0.803c1.99,0.104,3.713-0.775,5.562-1.181c0.848-0.186,1.818-0.134,2.657,0.091
		c0.401,0.108,0.906,0.891,0.879,1.338c-0.089,1.458-0.652,2.781-1.783,3.792c-0.65,0.581-1.167,0.638-1.506-0.324
		c-0.185-0.523-0.352-1.105-0.705-1.502c-0.351-0.395-1.045-0.917-1.372-0.797c-0.444,0.165-0.919,0.861-0.973,1.373
		c-0.296,2.826-2.95,5.154-5.769,4.925C149.306,151.403,149.25,151.313,148.887,151.002z"/>
	<path fill-rule="evenodd" clip-rule="evenodd" d="M199.968,203.66c-1.442-0.114-2.681-0.145-3.896-0.329
		c-1.287-0.195-1.685-0.657-1.242-1.876c0.562-1.549,1.46-2.976,2.219-4.452c0.053-0.104,0.158-0.179,0.232-0.272
		c1.329-1.675,2.333-1.646,3.542,0.139c0.468,0.69,0.888,1.419,1.271,2.16c0.577,1.117,1.37,1.902,2.631,2.254
		c0.397,0.11,0.677,0.643,1.01,0.982c-0.367,0.311-0.701,0.831-1.106,0.895C203.023,203.411,201.393,203.519,199.968,203.66z
		 M198.438,198.21c-0.418,1.576-0.139,2.506,0.837,2.593c0.303,0.027,0.808-0.407,0.948-0.743
		C200.533,199.319,199.687,198.469,198.438,198.21z"/>
	<path fill-rule="evenodd" clip-rule="evenodd" d="M200.721,192.217c-2.8-0.008-4.715-1.399-4.671-3.395
		c0.052-2.318,2.133-4.654,4.16-4.67c2.657-0.02,4.776,1.89,4.8,4.323C205.033,190.821,203.423,192.226,200.721,192.217z
		 M200.517,190.078c0.661-0.872,1.208-1.328,1.393-1.901c0.221-0.69-1.017-1.637-2.052-1.468c-0.424,0.069-1.137,0.92-1.052,1.103
		C199.138,188.518,199.738,189.099,200.517,190.078z"/>
	<path fill-rule="evenodd" clip-rule="evenodd" d="M200.563,144.742c-2.845,0.023-5.533-2.506-5.528-5.2
		c0.005-2.176,2.646-4.649,4.965-4.651c3.47-0.002,5.757,1.755,5.737,4.409C205.716,142.108,203.232,144.721,200.563,144.742z
		 M200.227,142.686c1.855-0.016,3.229-1.273,3.235-2.961c0.008-1.972-1.575-3.342-3.875-3.353c-1.29-0.006-2.737,1.498-2.727,2.834
		C196.875,141.123,198.403,142.702,200.227,142.686z"/>
	<path fill-rule="evenodd" clip-rule="evenodd" d="M255.615,124.989c-1.782-0.163-3.258-0.238-4.715-0.448
		c-1.331-0.191-1.876-0.966-1.345-2.2c0.623-1.444,1.528-2.771,2.379-4.105c0.106-0.167,0.705-0.209,0.935-0.073
		c0.915,0.542,1.882,1.068,2.628,1.805c1.139,1.123,2.369,1.854,3.998,1.851c0.308,0,0.692,0.056,0.906,0.241
		c0.365,0.317,0.896,0.79,0.856,1.14c-0.049,0.423-0.567,1.046-0.974,1.128C258.652,124.656,256.985,124.809,255.615,124.989z
		 M253.792,122.618c0.063-0.085,0.127-0.171,0.191-0.256c-0.371-0.464-0.741-0.928-1.227-1.537
		c-0.303,0.529-0.503,0.881-0.769,1.344C252.686,122.342,253.239,122.48,253.792,122.618z"/>
	<path fill-rule="evenodd" clip-rule="evenodd" d="M161.54,136.907c0.09-0.629,0.114-1.276,0.283-1.884
		c0.362-1.304,0.806-2.586,1.205-3.881c0.598-1.935,0.58-3.844-0.264-5.714c-0.114-0.254-0.254-0.503-0.325-0.77
		c-0.79-2.967-2.028-5.661-4.414-7.733c-0.429-0.373-0.599-1.043-0.889-1.576c0.104-0.092,0.207-0.185,0.311-0.277
		c1.061,0.794,2.133,1.574,3.18,2.386c0.849,0.659,1.669,1.356,2.501,2.037c1.676,1.372,2.343,3.301,2.727,5.304
		c0.128,0.665-0.245,1.463-0.511,2.155c-0.332,0.864-0.721,1.649-0.2,2.608c0.164,0.302,0.006,0.855-0.145,1.238
		c-0.613,1.554-1.251,3.1-1.942,4.62c-0.271,0.597-0.707,1.118-1.067,1.674C161.839,137.031,161.69,136.969,161.54,136.907z"/>
	<path fill-rule="evenodd" clip-rule="evenodd" d="M232.022,246.778c-0.55,0.626-0.884,1.111-1.316,1.48
		c-1.847,1.573-3.72,3.115-5.591,4.66c-0.275,0.228-0.574,0.438-0.89,0.603c-1.265,0.66-2.301,0.264-2.42-1.16
		c-0.114-1.36-0.012-2.813,0.377-4.111c0.2-0.667,1.181-1.452,1.896-1.549c2.085-0.282,4.213-0.266,6.325-0.317
		C230.821,246.373,231.245,246.581,232.022,246.778z"/>
	<path fill-rule="evenodd" clip-rule="evenodd" d="M193.208,53.428c2.693,0.718,5.305,1.389,7.901,2.117
		c1.262,0.354,1.979,1.238,2.242,2.541c0.181,0.894,0.565,1.75,0.699,2.646c0.121,0.809,0.026,1.65,0.026,2.477
		c-0.146,0.043-0.292,0.086-0.438,0.129c-0.511-0.569-1.09-1.092-1.521-1.716c-1.439-2.081-3.425-3.227-5.862-3.796
		C193.776,57.247,192.927,55.952,193.208,53.428z"/>
	<path fill-rule="evenodd" clip-rule="evenodd" d="M206.669,125.601c0.326,0.774,0.645,1.373,0.833,2.009
		c0.354,1.195-0.069,2.142-1.172,2.692c-0.424,0.211-0.898,0.457-1.349,0.456c-2.431-0.008-4.879,0.073-7.286-0.19
		c-2.285-0.25-3.034-2.481-1.618-4.491c0.271,0.21,0.542,0.415,0.808,0.627c1.652,1.321,1.737,1.304,3.556,0.245
		c0.298-0.173,0.858-0.161,1.175,0.002c2.629,1.353,2.62,1.369,4.513-0.895C206.225,125.939,206.362,125.856,206.669,125.601z"/>
	<path fill-rule="evenodd" clip-rule="evenodd" d="M105.842,153.305c-0.297,0.867-0.385,1.699-0.826,2.244
		c-0.426,0.526-1.447,1.218-1.806,1.038c-1.381-0.693-2.873-1.491-3.807-2.662c-0.939-1.177-0.402-2.804,0.369-4.058
		c1.064-1.729,3.851-1.587,4.909,0.273C105.237,151.117,105.477,152.274,105.842,153.305z"/>
	<path fill-rule="evenodd" clip-rule="evenodd" d="M142.321,109.781c-0.284,0.338-0.713,1.055-1.329,1.534
		c-1.062,0.827-2.235,1.512-3.369,2.245c-1.143,0.739-3.19,0.05-4.143-1.383c-0.722-1.085-0.527-2.198,0.863-2.997
		c1.746-1.002,3.6-1.844,5.475-2.584C141.051,106.108,142.348,107.603,142.321,109.781z"/>
	<path fill-rule="evenodd" clip-rule="evenodd" d="M260.599,99.057c-0.83-0.241-1.646-0.362-2.354-0.706
		c-1.749-0.849-3.324-1-4.757,0.611c-0.59,0.663-1.37,0.758-2.161,0.259c-1.43-0.901-2.713-1.93-3.415-4.029
		c0.95,0.134,1.701,0.086,2.312,0.356c1.563,0.693,2.96,0.931,4.133-0.662c0.149-0.203,0.451-0.354,0.708-0.406
		c1.849-0.378,5.368,2.097,5.663,3.963C260.738,98.516,260.698,98.596,260.599,99.057z"/>
	<path fill-rule="evenodd" clip-rule="evenodd" d="M201.607,103.202c-0.65,0.361-1.26,0.635-1.797,1.011
		c-1.694,1.183-4.845,0.273-5.54-1.682c-0.134-0.375-0.038-0.988,0.203-1.292c0.19-0.241,0.766-0.234,1.17-0.231
		c0.258,0.001,0.532,0.167,0.768,0.312c1.19,0.734,2.294,0.55,3.282-0.351c0.678-0.617,1.381-0.736,2.182-0.337
		c1.242,0.619,2.488,1.233,3.71,1.892c0.302,0.162,0.629,0.443,0.743,0.746c0.164,0.435,0.359,1.153,0.151,1.363
		c-0.312,0.313-1.002,0.465-1.459,0.364c-0.549-0.122-1.009-0.607-1.533-0.89C202.906,103.792,202.296,103.53,201.607,103.202z"/>
	<path fill-rule="evenodd" clip-rule="evenodd" d="M155.282,126.018c-1.021-0.332-2.26-0.55-3.308-1.121
		c-1.479-0.806-1.496-2.648-0.063-3.513c0.919-0.555,2.104-1.291,3.009-1.116c1.666,0.321,3.149,1.367,4.088,2.907
		c0.51,0.836,0.194,1.698-0.839,2.125C157.34,125.64,156.417,125.747,155.282,126.018z"/>
	<path fill-rule="evenodd" clip-rule="evenodd" d="M64.325,99.113c-1.271,0.713-2.346,0.827-3.366,0.164
		c-1.212-0.788-1.689-1.958-1.471-3.405c0.159-1.059,0.287-2.123,0.434-3.184c0.18-1.297-0.31-2.229-1.464-2.86
		c-0.398-0.218-0.718-0.581-1.073-0.877c0.002-0.146,0.005-0.293,0.007-0.44c0.515-0.104,1.066-0.374,1.538-0.274
		c0.763,0.162,1.513,0.497,2.199,0.882c1.954,1.097,2.193,1.989,1.173,3.976c-0.874,1.703-0.725,2.627,0.581,4.104
		C63.375,97.755,63.783,98.386,64.325,99.113z"/>
	<path fill-rule="evenodd" clip-rule="evenodd" d="M96.327,140.365c-2.065,0-4.143-0.13-6.192,0.05
		c-1.152,0.102-2.253,0.736-3.389,1.091c-0.832,0.26-1.678,0.579-2.531,0.624c-0.388,0.021-0.807-0.558-1.212-0.865
		c0.354-0.405,0.744-1.189,1.055-1.159c4.126,0.402,7.676-1.639,11.488-2.546c0.921-0.219,1.995-0.091,2.935,0.139
		c1.129,0.276,1.313,1.23,0.367,1.933c-0.687,0.51-1.6,0.715-2.412,1.057C96.399,140.581,96.363,140.473,96.327,140.365z"/>
	<path fill-rule="evenodd" clip-rule="evenodd" d="M154.705,191.3c0-0.119-0.003-0.238,0-0.357c0.034-1.364,0.866-2.727,1.734-2.84
		c1.384-0.181,2.984,0.781,3.322,2.161c0.356,1.455,0.408,2.937-0.704,4.166c-1.144,1.263-2.864,1.108-3.658-0.405
		c-0.43-0.817-0.601-1.771-0.888-2.662C154.576,191.342,154.64,191.321,154.705,191.3z"/>
	<path fill-rule="evenodd" clip-rule="evenodd" d="M150.093,136.795c-0.067,1.177,0.446,2.257-0.786,2.579
		c-1.138,0.296-1.871-0.461-2.441-1.33c-1.063-1.621-1.232-3.431-0.976-5.29c0.139-1.009,1.426-2.263,2.319-2.075
		c0.529,0.112,1.208,0.829,1.316,1.374C149.858,133.726,149.948,135.446,150.093,136.795z"/>
	<path fill-rule="evenodd" clip-rule="evenodd" d="M197.264,119.55c0.614-0.697,1.138-1.463,1.823-2.038
		c1.81-1.519,1.713-2.555-0.432-3.601c-1.686-0.823-1.848-1.079-1.514-2.593c2.737,0.457,4.938,1.81,6.728,3.884
		c0.111,0.129,0.112,0.446,0.042,0.627c-0.651,1.676-4.329,4.083-6.175,4.059C197.673,119.888,197.61,119.802,197.264,119.55z"/>
	<path fill-rule="evenodd" clip-rule="evenodd" d="M111.502,175.643c-0.121,1.027-0.18,2.068-0.393,3.076
		c-0.083,0.393-0.451,0.881-0.802,1.006c-0.235,0.083-0.765-0.328-0.992-0.642c-0.294-0.406-0.418-0.936-0.615-1.411
		c-0.544-1.309-1.088-2.617-1.631-3.927c-0.121-0.292-0.29-0.575-0.35-0.88c-0.333-1.688,0.376-2.319,1.961-1.77
		C110.873,171.856,111.421,172.764,111.502,175.643z"/>
	<path fill-rule="evenodd" clip-rule="evenodd" d="M223.126,63.523c0.508-0.024,1.015-0.044,1.521-0.072
		c0.948-0.052,1.371-0.624,0.851-1.391c-0.416-0.614-1.096-1.118-1.764-1.475c-0.727-0.388-1.604-0.484-2.363-0.824
		c-1.148-0.513-1.742-1.582-1.589-2.816c0.048-0.387,0.289-1.01,0.529-1.055c0.398-0.074,0.876,0.213,1.303,0.392
		c0.122,0.051,0.244,0.241,0.265,0.382c0.271,1.936,1.567,2.603,3.306,3.075c0.778,0.211,1.611,1.157,1.898,1.957
		c0.261,0.727,0.092,1.946-0.396,2.507c-0.489,0.563-1.6,0.736-2.45,0.771c-0.44,0.018-0.908-0.633-1.364-0.982
		C222.958,63.836,223.042,63.68,223.126,63.523z"/>
	<path fill-rule="evenodd" clip-rule="evenodd" d="M142.405,120.128c-2.243-0.084-2.935-1.114-1.973-3.117
		c0.409-0.852,0.948-1.654,1.511-2.417c0.622-0.843,1.463-0.86,1.992,0.074c0.639,1.128,1.136,2.362,1.49,3.608
		c0.098,0.344-0.433,1.085-0.854,1.306C143.93,119.918,143.134,119.961,142.405,120.128z"/>
	<path fill-rule="evenodd" clip-rule="evenodd" d="M171.351,108.125c0.49,1.229,1.126,2.426,1.408,3.7
		c0.134,0.609-0.216,1.55-0.675,2.019c-0.965,0.987-2.113,1.811-3.262,2.592c-0.337,0.229-1.024,0.26-1.365,0.062
		c-0.237-0.138-0.292-0.858-0.186-1.253c0.15-0.562,0.507-1.074,0.808-1.588C169.104,111.907,170.144,110.164,171.351,108.125z"/>
	<path fill-rule="evenodd" clip-rule="evenodd" d="M143.855,137.074c1.626,2.005,2.853,4.058,3.52,6.422
		c0.064,0.227,0.131,0.5,0.062,0.706c-0.165,0.492-0.297,1.139-0.664,1.369c-0.261,0.164-0.988-0.128-1.329-0.423
		C143.165,143.176,142.527,140.058,143.855,137.074z"/>
	<path fill-rule="evenodd" clip-rule="evenodd" d="M145.455,127.411c-1.507,0.022-2.683-1.031-2.725-2.439
		c-0.038-1.24,1.499-2.467,3.261-2.604c0.944-0.074,2.207,1.017,2.364,2.042C148.578,125.858,147.101,127.387,145.455,127.411z"/>
	<path fill-rule="evenodd" clip-rule="evenodd" d="M75.47,105.382c0.604-3.739,3.381-5.983,5.232-8.77
		c1.217,0.478,1.728,1.514,1.016,2.816c-0.683,1.248-1.706,2.355-2.749,3.346C77.975,103.72,76.764,104.435,75.47,105.382z"/>
	<path fill-rule="evenodd" clip-rule="evenodd" d="M153.19,115.651c-0.019,1.148-0.639,1.715-1.84,1.683
		c-1.593-0.043-3.372-1.623-3.289-2.919c0.06-0.935,1.805-2.042,3.323-2.108C152.132,112.275,153.212,114.273,153.19,115.651z"/>
	<path fill-rule="evenodd" clip-rule="evenodd" d="M189.527,262.98c-1.599-1.986-3.307-2.236-5.271-1.53
		c-0.371,0.133-0.859-0.057-1.415-0.108c0.471-1.704,1.803-2.313,2.865-3.125c0.19-0.146,0.834,0.241,1.235,0.447
		c0.661,0.339,1.302,0.72,1.938,1.103c0.501,0.301,1.361,0.6,1.393,0.957C190.326,261.358,189.872,262.037,189.527,262.98z"/>
	<path fill-rule="evenodd" clip-rule="evenodd" d="M86.893,144.77c2.266-2.596,5.753-3.019,8.444-1.308
		c-1.782,1.365-3.878,1.649-5.944,1.889C88.672,145.435,87.894,145.02,86.893,144.77z"/>
	<path fill-rule="evenodd" clip-rule="evenodd" d="M37.633,102.757c-1.302-0.013-2.378-1.074-2.379-2.344
		c0-1.07,1.004-2.155,1.97-2.127c1.427,0.042,2.608,1.141,2.62,2.438C39.854,101.825,38.826,102.77,37.633,102.757z"/>
	<path fill-rule="evenodd" clip-rule="evenodd" d="M158.269,152.458c0.141,0.607,0.439,1.229,0.383,1.817
		c-0.087,0.896-0.364,1.786-0.667,2.642c-0.229,0.646-0.473,1.414-1.499,1.046c-1.065-0.382-1.743-1.279-1.27-2.158
		c0.659-1.225,1.592-2.302,2.408-3.442C157.839,152.395,158.054,152.426,158.269,152.458z"/>
	<path fill-rule="evenodd" clip-rule="evenodd" d="M89.958,197.884c-0.748,0.762-1.256,1.608-1.993,1.93
		c-0.654,0.284-1.576,0.045-2.347-0.116c-0.129-0.027-0.297-0.986-0.098-1.251c0.519-0.689,1.19-1.288,1.888-1.807
		c0.31-0.23,0.936-0.377,1.227-0.216C89.092,196.679,89.389,197.225,89.958,197.884z"/>
	<path fill-rule="evenodd" clip-rule="evenodd" d="M92.989,147.072c1.729-2.022,3.458-0.413,5.118-0.503
		c-0.242,1.947-1.652,2.724-3.153,1.811C94.316,147.992,93.709,147.554,92.989,147.072z"/>
	<path fill-rule="evenodd" clip-rule="evenodd" d="M47.722,215.563c-1.114-0.003-1.526-0.417-1.507-1.515
		c0.018-0.997,0.814-2.237,1.441-2.241c0.771-0.006,1.832,1.297,1.826,2.244C49.477,214.981,48.796,215.566,47.722,215.563z"/>
	<path fill-rule="evenodd" clip-rule="evenodd" d="M101.907,145.085c-0.251-0.28-0.867-0.721-1.125-1.317
		c-0.37-0.854,0.385-1.035,1.034-1.183c0.188-0.042,0.374-0.237,0.539-0.213c0.788,0.115,1.787-0.082,2.086,0.963
		C104.649,144.064,103.396,145.067,101.907,145.085z"/>
	<path fill-rule="evenodd" clip-rule="evenodd" d="M151.214,157.785c-1.041-1.005-0.74-2.279,0.818-3.478
		C153.454,155.318,153.12,156.736,151.214,157.785z"/>
	<path fill-rule="evenodd" clip-rule="evenodd" d="M111.992,182.764c0.431,0.778,0.918,1.313,0.97,1.887
		c0.029,0.32-0.666,0.706-1.034,1.062c-0.448-0.539-1.005-1.031-1.272-1.648C110.582,183.893,111.374,183.348,111.992,182.764z"/>
	<path fill-rule="evenodd" clip-rule="evenodd" d="M203.519,84.776c0.365,0.492,0.78,0.898,0.719,0.991
		c-0.374,0.567-0.856,1.063-1.303,1.582c-0.303-0.412-0.938-0.959-0.837-1.207C202.296,85.652,202.904,85.328,203.519,84.776z"/>
	<path fill-rule="evenodd" clip-rule="evenodd" d="M69.297,238.438c0.951,0.02,3.035,1.576,3.144,2.52
		c0.053,0.462-0.236,1.06-0.56,1.428c-0.171,0.195-0.889,0.194-1.121-0.001c-0.831-0.698-1.685-1.433-2.283-2.32
		C68.045,239.423,68.679,238.425,69.297,238.438z"/>
	<path fill-rule="evenodd" clip-rule="evenodd" d="M199.331,140.98c0-0.953,0-1.844,0-2.735c0.142-0.091,0.282-0.182,0.424-0.273
		c0.563,0.516,1.486,0.957,1.612,1.563C201.613,140.716,200.606,140.978,199.331,140.98z"/>
	<g>
		<g>
			<path d="M136.61,44.44c0.693,0.191,1.389,0.385,2.076,0.578c0.691,0.127,1.588,0.024,2.225,0.279
				c0.732,0.474,1.473,0.946,2.197,1.407c0.615,0.154,1.232,0.306,1.85,0.456c1.141,0.539,3.098,2.252,3.463,3.492
				c0.316,1.09-0.078,2.217-0.131,3.266c-0.074,1.451,0.443,2.747-0.379,3.921c-1.867,2.635-5.322-0.543-7,1.14
				c-1.916,1.912,1.531,8.828-2.5,8.559c-0.469-0.033-1.58-0.813-1.033-0.813c0.301-0.79,0.877-1.454,0.996-2.344
				c0.369-2.884-1.152-5.685-4.311-5.199c-2.619,0.379-5.23,4.357-7.488,0.644c-0.342-0.562-0.984-1.081-0.984-1.81
				c0.104-0.039,0.207-0.078,0.309-0.117c1.518-0.516,2.193,1.112,3.727,0.839c1.361-0.257,2.246-1.577,3.443-2.145
				c1.031-0.5,2.516-0.37,3.795-0.37c2.139-0.865,7.223,1.108,8.748-0.463c0.51-0.545,0.633-1.336,0.6-2.098
				c-0.102-2.017-2.303-3.843-4.051-4.396c-0.727-0.136-1.447-0.261-2.176-0.398c-0.391-0.119-0.689-0.588-1.076-0.588
				c0.02-0.556-0.021-1.532-0.762-1.532c0,0.088,0,0.175,0,0.257c-0.365,0.475-0.729,0.965-1.094,1.447
				c-0.938,0.72-2.324,0.72-3.492,0.983c-0.863,0.311-1.719,0.634-2.574,0.944c-4.85,1.883-6.334,6.718-8.246,10.952
				c-0.35,0.759-1.127,1.688-2.039,1.729c-2.205,0.078-1.859-4.021-0.23-4.021c0-0.165,0-0.337,0-0.51
				c-0.889-0.712-1.893-1.999-0.744-3.011c0.48-0.432,2.787-0.543,2.787-0.835c0.092,0,0.178,0,0.264,0
				c-0.182-0.893-0.893-1.824-0.766-2.782c0.23-1.806,3.064-1.724,3.064-2.083c0.09,0,0.178,0,0.256,0
				c0.201-3.276,1.381-2.665,3.869-2.231c0.592-0.026,1.186-0.049,1.77-0.074c0.168-0.767,0.35-1.538,0.514-2.305
				C134.1,44.679,134.309,47.258,136.61,44.44z"/>
		</g>
		<g>
			<path d="M142.499,60.836c2.143,0.138,2.385,0.896,2.139,2.825c-0.107,0.913-0.201,1.828-0.309,2.739
				c-0.107,0.325-0.551,0.71-0.551,1.095c-1.563-0.909-1.223-2.495-1.797-3.985c-0.227-0.576-0.758-0.946-0.758-1.653
				C141.643,61.515,142.075,61.182,142.499,60.836z"/>
		</g>
		<g>
			<path d="M133.792,61.091c2.686,0.736,2.271,5.101,1.637,7.36c-0.447,1.116-0.896,2.245-1.348,3.368
				c-0.52,1.808-0.264,5.114-0.33,7.195c-0.033,0.928,0.082,2.57,1.32,2.57c0.313-0.882,0.521-1.808,0.551-2.84
				c-0.127-0.769-0.246-1.53-0.373-2.299c-0.125-1.428,0.031-6.204,1.15-6.807c0.951-0.528,2.662-0.093,3.793-0.093
				c2.467-1.242,3.846,2.472,3.846,4.352c0.34,0,0.258-0.087,0.258,0.257c0.16,0,0.342,0,0.51,0c0.104-0.863,0.107-1.992,0.744-2.57
				c1.346-1.255,8.992,0.259,8.959,2.052c-0.041,2.038-4.303,1.999-5.832,2.402c-1.16,0.288-2.109,0.824-3.076,1.495
				c-0.313,0.218-0.795,0.311-0.795,0.72c-0.168,0-0.336,0-0.51,0c0-3.161-1.041-1.642-1.854-3.426
				c-0.396-0.848-0.182-2.096-0.936-2.728c-1.25-1.053-4.156,0.029-4.643,1.391c-0.563,1.538-0.625,8.086,0.439,9.189
				c0.934,0.969,4.002,0.725,4.057,1.993c-0.115,0.376-0.238,0.753-0.367,1.123c-0.064,0.088-0.131,0.185-0.189,0.267
				c-1.406,1.759-3.836,2.263-5.617,3.385c-0.971,0.885-1.938,1.777-2.912,2.665c-1.023,0.889-2.146,1.465-3.154,2.48
				c-0.789,0.781-1.357,1.929-2.307,2.507c-0.152,0.037-0.301,0.078-0.449,0.11c-0.625-1.795,0.164-3.259,1.588-4.277
				c0.279-0.209,0.568-0.592,0.971-0.592c0-0.167,0-0.333,0-0.51c-0.09,0-0.174,0-0.26,0c0-0.089,0-0.171,0-0.255
				c-1.916-0.124-3.072-0.221-3.072-2.308c1.877-0.376,4.191,0.257,6.148,0.257c0.449-0.456,1.279-0.785,1.279-1.54
				c-0.168,0-0.332,0-0.51,0c-1.209-0.487-3.965,0-5.379,0c0-0.343,0.078-0.253-0.26-0.253c0-0.09,0-0.168,0-0.257
				c0.416-1.146,0.844-2.291,1.26-3.442c0.533-0.526,1.08-1.057,1.619-1.585c1.48-1.872,2.574-4.691,2.209-7.27
				c-0.172-1.175-0.346-2.516-0.77-3.576c-0.336-0.841-1.496-1.635-1.496-2.57c0.09,0,0.176,0,0.254,0c0-0.089,0-0.169,0-0.255
				c0.449,0.006,1.182,0.166,1.525-0.173c0.137-1.536-1.27-2.769-1.27-4.442c0.172,0,0.342,0,0.51,0c0-0.086,0-0.166,0-0.253
				c1.209,0.325,2.072,1.791,3.332,1.791c0.143-0.294,0.119-0.514,0.514-0.514c0-0.342,0.078-0.253-0.256-0.253
				c-0.584-0.999-1.793-1.48-1.793-2.819C132.936,61.773,133.364,61.435,133.792,61.091z"/>
		</g>
		<g>
			<path d="M124.317,61.856c2.221,0.69,1.146,1.598,1.85,3.302c1.004,2.427,1.926,1.952,1.975,5.413
				c0,0.341,0.078,0.255-0.242,0.255c0,0.086,0,0.177,0,0.255c-1.818-0.415-1.551-1.384-2.543-2.641
				c-0.592-0.428-1.172-0.849-1.763-1.279c-0.469-0.333-1.275-0.769-1.432-1.347C121.829,64.686,123.642,62.662,124.317,61.856z"/>
		</g>
		<g>
			<path d="M128.409,71.338c0.736,0.143,2.209,0.969,1.113,1.802C128.409,73.973,128.141,71.99,128.409,71.338z"/>
		</g>
		<g>
			<path d="M138.653,72.872c0.408,0,1.287-0.197,1.287,0.259c0.082,0,0.174,0,0.252,0c-0.137,0.681-0.23,1.785-1.197,1.617
				C138.192,74.605,138.399,73.38,138.653,72.872z"/>
		</g>
		<g>
			<path d="M128.663,74.923c0.605,0.146,2.555,1.233,1.357,2.048C128.833,77.783,128.598,75.611,128.663,74.923z"/>
		</g>
		<g>
			<path d="M138.147,77.486c0.432,0.119,0.863,0.241,1.283,0.354c0.803,0.545,0.111,1.951-0.777,1.951
				C138.284,79.072,137.958,78.386,138.147,77.486z"/>
		</g>
		<g>
			<path d="M120.985,91.577c3.236,0.52,4.615,6.599,1.213,7.121c-2.5,0.378-3.393-3.011-2.779-5.001
				C119.702,92.775,120.274,92.239,120.985,91.577z"/>
		</g>
	</g>
</g>
<text transform="matrix(1 0 0 1 316.7437 92.313)"><tspan x="0" y="0" font-family="'ArialMT'" font-size="73.5583"></tspan><tspan x="0" y="82" font-family="'ArialMT'" font-size="73.5583"></tspan><tspan x="0" y="164" font-family="'ArialMT'" font-size="73.5583"></tspan></text>
</svg>
